<svg width="80" height="80" viewBox="0 0 80 80" fill="none" xmlns="http://www.w3.org/2000/svg">
<path d="M40 80.0002C29.316 80.0002 19.27 75.84 11.715 68.2852C4.1603 60.7305 0 50.6832 0 40.0002C0 29.3172 4.1602 19.2702 11.715 11.7152C19.2697 4.1605 29.317 0.000198364 40 0.000198364C50.683 0.000198364 60.73 4.1604 68.285 11.7152C75.8397 19.2699 80 29.3172 80 40.0002C80 50.6832 75.8398 60.7302 68.285 68.2852C60.7303 75.8399 50.683 80.0002 40 80.0002ZM40 6.1522C21.336 6.1522 6.152 21.3362 6.152 40.0002C6.152 58.6642 21.336 73.8482 40 73.8482C58.664 73.8482 73.848 58.6642 73.848 40.0002C73.848 21.3362 58.664 6.1522 40 6.1522Z" fill="#fbf5ff"/>
<path d="M40 80.0002C27.305 80.0002 17.359 62.4302 17.359 40.0002C17.359 17.5702 27.3043 0.000198364 40 0.000198364C52.6957 0.000198364 62.641 17.5702 62.641 40.0002C62.641 62.4302 52.6957 80.0002 40 80.0002ZM40 6.1522C36.0273 6.1522 31.9766 9.496 28.887 15.3319C25.4222 21.871 23.5159 30.6329 23.5159 39.9999C23.5159 49.3669 25.4221 58.1289 28.887 64.6679C31.9768 70.4999 36.0276 73.8482 40 73.8482C43.9724 73.8482 48.0234 70.5038 51.113 64.6679C54.5778 58.1288 56.4841 49.3669 56.4841 39.9999C56.4841 30.6329 54.5779 21.8709 51.113 15.3319C48.0232 9.4999 43.9724 6.1522 40 6.1522Z" fill="#fbf5ff"/>
<path d="M40 80.0002C38.3008 80.0002 36.9219 78.6213 36.9219 76.9221V3.0781C36.9219 1.3789 38.3008 0.000198364 40 0.000198364C41.6992 0.000198364 43.0781 1.3789 43.0781 3.0781V76.9261C43.0781 78.6214 41.6992 80.0002 40 80.0002Z" fill="#fbf5ff"/>
<path d="M74.867 55.2502H5.133C3.4338 55.2502 2.0549 53.8713 2.0549 52.1721C2.0549 50.4729 3.4338 49.094 5.133 49.094H74.871C76.5702 49.094 77.9491 50.4729 77.9491 52.1721C77.9452 53.8713 76.5701 55.2502 74.867 55.2502Z" fill="#fbf5ff"/>
<path d="M74.867 30.9062H5.133C3.4338 30.9062 2.0549 29.5273 2.0549 27.8281C2.0549 26.1289 3.4338 24.75 5.133 24.75H74.871C76.5702 24.75 77.9491 26.1289 77.9491 27.8281C77.9452 29.5273 76.5701 30.9062 74.867 30.9062Z" fill="#fbf5ff"/>
</svg>
