<svg xmlns="http://www.w3.org/2000/svg" version="1.1" viewBox="-5.0 -10.0 110.0 135.0">
 <g>
  <path d="m79.059 55.934c0.51953-0.63281 1-1.2852 1.0859-2.1445 0.023438-0.24219 0.089844-0.49219 0.19531-0.71094 0.26562-0.54297 0.61719-1.0469 0.84375-1.6016 0.54297-1.3281 0.69531-2.7266 0.56641-4.1445-0.10938-1.2109-0.35156-2.3945-1.0391-3.4336-0.35938-0.54297-1.125-0.75391-1.707-0.44531-0.48047 0.25391-0.88281 0.60938-1.1992 1.0625-0.28516 0.41016-0.59766 0.80469-0.89453 1.2031-0.37891-0.99219-0.70703-1.9805-1.1289-2.9219-0.42578-0.94141-0.94531-1.8398-1.3867-2.6797 0.48828-0.023438 1.0273 0.015624 1.5352-0.085938 1.3008-0.25391 2.4102-0.89453 3.1992-1.9648 0.40625-0.55078 0.73047-1.1758 1.0078-1.8047 0.53516-1.2266 0.73828-2.5195 0.55469-3.8555-0.089844-0.64844-0.5625-1.1211-1.1641-1.1484-1.3242-0.054687-2.5664 0.28125-3.7461 0.84766-0.49609 0.23828-0.95703 0.55469-1.4531 0.84375 0.015625-0.042969 0.019531-0.085938 0.039063-0.125 0.41406-0.82031 0.60156-1.6992 0.53125-2.6055-0.13281-1.7344-0.82031-3.2461-2.0977-4.4375-1.1445-1.0703-2.5156-1.7422-4.0703-2.0039-1-0.17188-1.3398 0.070312-1.625 0.71094-0.37109 0.82812-0.5 1.7266-0.53125 2.6445-0.0625 1.8945 0.41406 3.6016 1.6641 5.0625 0.54688 0.64453 1.2305 1.0938 2.0234 1.3359 0.59375 0.18359 1.2227 0.25781 1.9258 0.39453-0.10938 0.88281-0.22656 1.8398-0.35547 2.8828-3.5-4.0508-7.8906-5.9023-13.031-5.8984-5.1562 0.003906-9.5586 1.9141-13.082 5.7734-0.20703-0.29297-0.35547-0.57031-0.5625-0.78906-0.65625-0.70703-1.3086-1.4141-2.0078-2.0742-0.44141-0.41797-0.9375-0.79297-1.4531-1.1172-0.62109-0.39453-1.2734-0.75391-1.9414-1.0625-0.78906-0.36719-1.5898-0.73828-2.418-0.98047-0.92578-0.26953-1.8906-0.42188-2.8477-0.57812-1.7383-0.28516-3.4844-0.17969-5.1992 0.16406-1.0703 0.21484-2.1328 0.55078-3.1523 0.94141-1.9414 0.74609-3.5742 1.9492-4.8828 3.5742-0.37109 0.46094-0.71484 0.94531-1.0703 1.4219-0.5625 0.75391-0.94531 1.6016-1.2695 2.4766-0.42578 1.1523-0.60156 2.3516-0.67969 3.5781-0.070313 1.1055 0.011719 2.1992 0.24219 3.2695 0.1875 0.85547 0.48047 1.6953 0.80078 2.5156 0.22266 0.57031 0.55469 1.0977 0.86328 1.6328 0.22266 0.37891 0.47266 0.74609 0.73828 1.0977 0.33203 0.44141 0.67188 0.88281 1.043 1.293 0.36719 0.39844 0.76953 0.76562 1.1758 1.1289 0.51953 0.46875 1.0273 0.95312 1.5898 1.3633 0.64844 0.47656 1.332 0.92188 2.0391 1.3086 0.80859 0.44531 1.6602 0.81641 2.5 1.207 0.41406 0.19141 0.84375 0.34375 1.2656 0.51172-0.19531 0.47656-0.41016 0.90234-0.54688 1.3477-0.36719 1.168-0.54297 2.3633-0.41016 3.5938 0.13672 1.2734 0.46875 2.457 1.3828 3.4258 0.91406 0.96875 2.0586 1.3945 3.3477 1.5 0.76953 0.0625 1.5312-0.042969 2.2773-0.25781 0.85547-0.25 1.6719-0.58594 2.3633-1.1562 0.39062-0.32031 0.76562-0.67969 1.0859-1.0703 0.5-0.61328 0.96094-1.2578 1.4141-1.9062 0.24219-0.34375 0.42969-0.72656 0.65234-1.1133 0.31641 0.12891 0.58203 0.25391 0.85938 0.35156 0.83594 0.28906 1.6758 0.5625 2.5078 0.85547 0.070313 0.023437 0.15625 0.15625 0.15234 0.23438-0.035156 0.625-0.10156 1.25-0.13672 1.8789-0.082031 1.5898 0.125 3.1523 0.53516 4.6875 0.27344 1.0117 0.76172 1.9336 1.3438 2.793 0.54688 0.80859 1.2031 1.5469 1.9961 2.1133 0.91016 0.65234 1.9258 1.1055 3.0547 1.3008 1.8984 0.32422 3.6094-0.027343 5.1484-1.2148 0.76562-0.58984 1.2891-1.3398 1.625-2.2227 0.57422-1.5195 0.49609-3.0859 0.26953-4.6523-0.10156-0.71094-0.23047-1.4141-0.35156-2.1406 3.1484 0.10547 6.1211-0.50391 9.0195-1.6445 0.0625 0.074219 0.14844 0.14453 0.1875 0.23438 0.34375 0.81641 0.76953 1.582 1.2617 2.3164 0.60156 0.89844 1.3281 1.6836 2.2109 2.2773 1.0547 0.71094 2.2539 1.1016 3.5508 1.082 1.1484-0.019532 2.1914-0.37891 3.0977-1.0781 0.31641-0.24219 0.61328-0.53125 0.84766-0.85156 0.39062-0.53516 0.82812-1.0742 1.0469-1.6836 0.35938-1 0.48047-2.0586 0.45312-3.1406-0.042969-1.6719-0.42969-3.25-1.0781-4.7695-0.29297-0.6875-0.64453-1.3555-0.95703-2.0352-0.039063-0.085938-0.054687-0.23047-0.007813-0.29688 0.10156-0.14844 0.25781-0.25781 0.375-0.39844zm-3.6484-8.4453c0.41016 0.69531 0.30078 0.99609-0.33594 1.5547-0.55469 0.48828-1.1484 0.94141-1.7383 1.3906-0.23438 0.17969-0.50781 0.30859-0.76172 0.46094-0.22656 0.13281-0.36719 0.32031-0.23047 0.57031 0.13281 0.24219 0.35156 0.29297 0.62109 0.17578 0.94922-0.41797 1.7656-1.0234 2.5195-1.7305 0.14062-0.13281 0.26953-0.27344 0.41797-0.42578 0.14844 0.30859-0.023438 0.49219-0.15625 0.71484-0.38672 0.65625-0.94922 1.1211-1.5547 1.5508-0.76172 0.53906-1.5859 0.95703-2.457 1.2773-0.69141 0.25391-1.3945 0.46875-2.1055 0.70703 0-0.32031-0.054687-0.58203 0.019532-0.79688 0.046874-0.13281 0.27734-0.22266 0.44531-0.28516 0.46484-0.17969 0.94531-0.32031 1.4102-0.5 0.23828-0.09375 0.30859-0.30469 0.20312-0.54297-0.10938-0.24609-0.3125-0.35156-0.56641-0.26953-0.3125 0.10156-0.60938 0.25-0.91406 0.36719-0.17578 0.070313-0.35937 0.12109-0.58594 0.19531v-1.293c2.2344-0.42578 4.2305-1.3555 5.7773-3.1172zm-0.85547-2.2344c0.33984 0.27734 0.52344 1.1641 0.17187 1.5898-0.94141 1.125-2.1016 1.9062-3.4414 2.4414-0.55078 0.21875-1.1289 0.35547-1.7383 0.53906-0.074219-0.61719-0.14062-1.1562-0.21875-1.7734 2.0234-0.38672 3.7773-1.3203 5.2305-2.793zm-1.0625-7.9766c0.097656-0.47266 0.17578-0.94922 0.32031-1.4062 0.21484-0.67578 0.73047-1.1484 1.2266-1.6094 0.91016-0.84375 2.0078-1.3398 3.2148-1.6172 0.24219-0.054687 0.47656-0.14453 0.82031-0.25 0 0.38281 0.046875 0.69922-0.007813 1-0.16016 0.88672-0.29688 1.7852-0.56641 2.6406-0.3125 0.98438-0.94141 1.7773-1.875 2.2852-0.57031 0.30859-1.1719 0.46094-1.8203 0.36328-0.12891-0.019532-0.25-0.082032-0.42969-0.14453 0.23047-0.35937 0.41016-0.69141 0.64453-0.98437 0.41016-0.52344 0.84766-1.0312 1.2891-1.5312 0.17188-0.19531 0.375-0.36328 0.58203-0.51563 0.23047-0.17187 0.28906-0.39453 0.1875-0.62891-0.11328-0.25781-0.36719-0.29297-0.58984-0.17578-0.26953 0.14453-0.53125 0.32031-0.75781 0.52344-0.81641 0.73047-1.5703 1.5234-2.1016 2.4961-0.015625 0.027344-0.050781 0.042969-0.18359 0.14062 0.023438-0.25781 0.023438-0.42578 0.054688-0.58594zm0.082031 5.418c0.20312 0.51953 0.40625 0.96094 0.53906 1.4219 0.039063 0.13281-0.082031 0.36328-0.19531 0.48047-0.67578 0.69922-1.375 1.375-2.3047 1.7422-0.67969 0.26953-1.3594 0.53516-2.043 0.79688-0.11328 0.042969-0.24219 0.046875-0.39062 0.074219-0.10938-0.54688-0.19531-1.0703-0.32422-1.5781-0.0625-0.24219 0.042969-0.33594 0.23047-0.37109 0.85937-0.15625 1.6797-0.44141 2.4375-0.85938 0.66016-0.36328 1.3203-0.75 1.7773-1.3867 0.058594-0.082031 0.13281-0.15234 0.27734-0.31641zm-3.875-14.602c0.27344 0.56641 0.5625 1.1289 0.83984 1.6953 0.37109 0.76172 0.73438 1.5234 1.0977 2.2891 0.03125 0.066406 0.03125 0.14844 0.050781 0.26172-0.49609-0.035156-0.92188-0.17969-1.3047-0.44141-1.3711-0.94531-1.9961-2.3164-2.1797-3.918-0.10156-0.87891-0.039063-1.7539 0.16797-2.6211 0.050781-0.21094 0.13672-0.28125 0.33203-0.20312 0.46484 0.18359 0.93359 0.36328 1.3945 0.55469 0.70703 0.29297 1.3008 0.76953 1.8125 1.3125 0.50781 0.54297 0.88281 1.1797 1.0664 1.9297 0.20313 0.83984 0.39844 1.6758 0.21094 2.543-0.042969 0.20312-0.14844 0.39453-0.25 0.65625-0.089844-0.11328-0.125-0.15234-0.14844-0.19531-0.66016-1.3164-1.3203-2.6289-1.9805-3.9453-0.078125-0.15234-0.18359-0.29297-0.29297-0.42188-0.1875-0.21484-0.4375-0.23438-0.66016-0.10156-0.22656 0.13281-0.26172 0.375-0.14844 0.60938zm2.0742 11.625c0.30859 0.51562 0.62109 1.0625 0.96094 1.5898 0.36719 0.57031 0.039063 0.99609-0.32031 1.3477-0.97266 0.95703-2.1797 1.4883-3.5078 1.7656-0.054688 0.011719-0.11328 0-0.1875 0-0.042969-0.57812-0.082031-1.1406-0.125-1.7031-0.015625-0.21484-0.019531-0.4375-0.070312-0.64453-0.054688-0.21094 0.023437-0.28516 0.20312-0.35938 0.57031-0.23438 1.1719-0.41797 1.6797-0.74609 0.48047-0.30859 0.85938-0.78125 1.3672-1.2578zm-4.5859 10.273c-0.011719-0.24609-0.1875-0.42969-0.46484-0.41406-0.25781 0.011719-0.40625 0.16016-0.40234 0.42578 0.007813 0.59375 0.058594 1.1875 0.03125 1.7812-0.03125 0.73828-0.11328 1.4766-0.19141 2.2109-0.023437 0.21875-0.14844 0.34375-0.41016 0.35547-1.8516 0.089844-3.6875-0.054687-5.4922-0.46094-1.2266-0.27734-2.4375-0.64062-3.6367-1.0156-0.71484-0.22266-1.4023-0.53906-2.1016-0.82031-0.12109-0.050782-0.22656-0.14063-0.33203-0.21094 0.12891-0.30859 0.24609-0.58203 0.375-0.89453 0.35547 0.14062 0.70703 0.26562 1.0469 0.41406 1.4375 0.62109 2.8984 1.168 4.4219 1.5312 0.14062 0.035157 0.29297 0.035157 0.44141 0.039063 0.24609 0.011718 0.44141-0.089844 0.49219-0.33594 0.054687-0.26562-0.074219-0.44531-0.33984-0.51562-0.71094-0.19531-1.4375-0.34375-2.1289-0.59375-1.1523-0.41406-2.2812-0.89453-3.4141-1.3477-0.19922-0.078125-0.31641-0.16406-0.1875-0.43359 0.125-0.25781 0.14453-0.57031 0.21875-0.90234 0.22266 0.10937 0.39844 0.21094 0.58594 0.28906 0.91016 0.375 1.8242 0.73047 2.7305 1.1133 1.0781 0.45703 2.2109 0.72266 3.3594 0.89453 0.94141 0.14063 1.8945 0.18359 2.8438 0.26563 0.085938 0.007812 0.17578-0.039063 0.26563-0.050782 0.22656-0.035156 0.40234-0.13281 0.39062-0.38672-0.015624-0.25781-0.1875-0.37891-0.4375-0.39453-0.33984-0.019531-0.68359-0.03125-1.0234-0.046875-1.543-0.078125-3.0547-0.32422-4.5117-0.84375-1.1094-0.39453-2.1953-0.85547-3.2773-1.3281-0.74609-0.32422-0.76172-0.42188-0.58984-1.1602 0.089843-0.375 0.16406-0.75 0.25781-1.168 0.41797 0.22266 0.83203 0.44531 1.25 0.66406 1.3828 0.73047 2.8438 1.2539 4.3906 1.4883 1.0117 0.15234 2.0352 0.23047 3.0586 0.29688 0.40625 0.027344 0.82031-0.046875 1.2266-0.10547 0.31641-0.046875 0.52734 0.039063 0.58203 0.36328 0.050781 0.30859 0.24609 0.44531 0.52344 0.42969 0.28906-0.019531 0.44922-0.31641 0.39844-0.66016-0.023438-0.16406-0.066407-0.32812-0.074219-0.49219-0.003906-0.074218 0.023438-0.17969 0.078125-0.22656 0.32422-0.30469 0.66406-0.59766 1.0391-0.93359 0.097656 0.63672 0.21094 1.2578 0.28906 1.8828 0.089844 0.6875 0.18359 1.3789 0.21094 2.0703 0.027343 0.71094-0.015626 1.4219-0.042969 2.1328-0.011719 0.28516-0.046875 0.57031-0.10547 0.84766-0.023438 0.10156-0.13672 0.23438-0.23438 0.25781-0.37891 0.10156-0.76953 0.16797-1.2148 0.25781 0.054688-0.52344 0.14453-0.99609 0.15234-1.4688 0.011719-0.93359-0.011719-1.8672-0.050781-2.7969zm-5.7344 6.4219c-0.089844-0.125-0.32031-0.21484-0.48828-0.21094-0.14844 0.003906-0.30078 0.14062-0.44141 0.23828-0.39453 0.26953-0.78125 0.55469-1.1719 0.82422-0.24609 0.16797-0.41797 0.14062-0.61719-0.12891-0.32031-0.43359-0.68359-0.84375-1.0742-1.2148-0.46484-0.44141-1.0742-0.58984-1.6953-0.67578-1.1484-0.16016-2.168 0.19531-3.1055 0.8125-0.43359 0.28516-0.8125 0.65625-1.2891 1.0508-0.23828-0.70312-0.46875-1.375-0.71484-2.0898 0.82812-0.24219 1.6055-0.48438 2.4297-0.47266 0.16016 0 0.33984 0.046875 0.48047-0.007813 0.18359-0.070312 0.33984-0.21875 0.51172-0.33594-0.12109-0.16016-0.21484-0.42969-0.36719-0.46484-0.33984-0.082031-0.71094-0.09375-1.0586-0.046875-0.58984 0.085938-1.168 0.23047-1.7461 0.36719-0.41406 0.097656-0.48438 0.058594-0.53125-0.36719-0.023438-0.21484-0.019531-0.44922-0.11328-0.625-0.078126-0.14453-0.27734-0.27734-0.4375-0.29688-0.10938-0.011719-0.30469 0.15625-0.35156 0.28516-0.070313 0.19531-0.10547 0.4375-0.054687 0.63672 0.23828 0.96484 0.51172 1.918 0.76953 2.875 0.011719 0.039063 0 0.085938 0 0.17188-0.31641-0.20703-0.61719-0.37109-0.875-0.58594-0.48047-0.39844-0.92969-0.83203-1.3984-1.2461-0.20312-0.17969-0.25391-0.36328-0.16406-0.64062 0.14844-0.45312 0.23047-0.92969 0.35938-1.3906 0.027344-0.10547 0.12109-0.24609 0.20703-0.26953 0.69141-0.16797 1.3906-0.28906 2.0781-0.46875 0.80078-0.20703 1.457 0.14844 2.1367 0.46484 0.78125 0.36719 1.5547 0.76172 2.3555 1.0742 0.99609 0.38672 2.0156 0.71484 3.0391 1.0273 0.33594 0.10156 0.59766 0.20312 0.71484 0.56641 0.046875 0.14062 0.20703 0.24219 0.3125 0.35938 0.22266 0.25391 0.53125 0.34766 0.80078 0.19141 0.15234-0.089843 0.19141-0.375 0.30078-0.61719 0.71094 0.097656 1.5117 0.15625 2.2773 0.33984 0.28125 0.066406 0.52344 0.41016 0.72656 0.67188 0.71094 0.92969 1.3984 1.875 2.0859 2.8242 0.15625 0.21094 0.28516 0.44141 0.41797 0.66797 0.097656 0.16406 0.097656 0.24609-0.14453 0.28125-0.55469 0.085938-1.1055 0.20312-1.6758 0.085938-0.042968-0.59766-0.17188-1.1523-0.68359-1.5195-0.54297-0.38672-1.168-0.46875-1.7695-0.24219-0.51953 0.19531-0.98438 0.51953-1.5117 0.80859-0.15234-0.26953-0.33984-0.58984-0.53516-0.94141 0.20312-0.097657 0.40625-0.16016 0.57031-0.27734 0.45703-0.32812 0.91016-0.66797 1.332-1.0352 0.10547-0.09375 0.18359-0.375 0.12109-0.46484zm-12.598-11.59c-0.10938-0.33203-0.28906-0.62109-0.61328-0.73438-0.44531-0.15625-0.49609-0.46094-0.42188-0.875 0.91797 0.09375 1.8438 0.96875 1.8906 2.0195 0.046874 1.0078-0.21094 1.918-0.61719 2.8086-0.027344 0.058593-0.074219 0.10938-0.13672 0.19922-0.12109-0.17188-0.23047-0.31641-0.32812-0.46484-0.17969-0.26953-0.28906-0.48047-0.0625-0.84766 0.39453-0.62891 0.53125-1.3555 0.28906-2.1055zm-1.0703 1.5469c-0.24219-0.48438 0-0.91797-0.011718-1.4062 0.42187 0.29297 0.40625 0.88281 0.011718 1.4062zm2.0039 2.2617c0.65234-1.125 0.91016-2.3359 0.78906-3.6367-0.097656-1.082-1.0039-2.1484-2.0977-2.4414-0.023438-0.003907-0.042969-0.015626-0.066407-0.019532-0.62109-0.078125-0.85937-0.44141-0.74609-1.1094 0.33203 0.10156 0.69531 0.1875 1.0352 0.32422 0.63281 0.25391 1.207 0.61719 1.6836 1.0977 0.27734 0.27734 0.52344 0.60938 0.70703 0.96094 0.35938 0.6875 0.57031 1.4297 0.54297 2.2188-0.046875 1.3398-0.3125 2.6328-0.75391 3.8945-0.019531 0.050781-0.054687 0.097656-0.12891 0.22266-0.33594-0.36328-0.62891-0.69141-0.9375-1-0.17578-0.17578-0.13672-0.32031-0.023437-0.51172zm4.5312-7.3359c-0.074218-0.25781-0.011718-0.64844 0.14453-0.86719 0.29297-0.41016 0.67969-0.76172 1.0625-1.1016 0.45703-0.41016 0.92578-0.80859 1.4297-1.1602 0.44922-0.3125 0.94531-0.57031 1.4375-0.82422 0.30859-0.16016 0.64453-0.27344 0.96875-0.41016 0.9375-0.39844 1.8828-0.25391 2.8047 0.027344 0.72266 0.22266 1.4375 0.49219 2.1094 0.83594 0.51172 0.26172 0.95703 0.66406 1.4219 1.0156 0.89844 0.67578 1.4883 1.5859 1.7852 2.6484 0.25391 0.91016 0.27344 1.8594 0.1875 2.8008-0.042969 0.46484-0.097656 0.93359-0.19531 1.3906-0.16797 0.82031-0.76953 1.2617-1.5156 1.4805-0.57422 0.16797-1.1797 0.22656-1.5078 0.28516-1.9102 0.046875-3.4922-0.21875-5.0312-0.75-1.3398-0.46094-2.6406-1.0117-3.6992-1.9844-0.22266-0.20703-0.37891-0.51562-0.49219-0.80469-0.33203-0.85156-0.65625-1.707-0.91406-2.582zm16.141-2.9922c0.53906 0.37109 0.67578 0.78125 0.17187 1.2969-0.64844 0.66406-1.3867 1.1055-2.3125 1.3945-0.14062-0.32422-0.27734-0.64062-0.42578-0.98828 1.0312-0.33203 1.8984-0.87109 2.5664-1.7031zm-2.5156-2.3672c0.25 0.20312 0.26563 0.41016 0.007813 0.60156-0.32422 0.24609-0.67969 0.44922-1.0391 0.64453-0.23047 0.125-0.48828 0.21094-0.37109 0.55078 0.089843 0.25781 0.44922 0.35938 0.73828 0.21484 0.59766-0.30078 1.1836-0.62109 1.625-1.2422 0.25 0.24219 0.49219 0.46094 0.71484 0.69531 0.14844 0.16016 0.16406 0.33594 0.011718 0.52344-0.50391 0.62891-1.1719 1-1.9297 1.2344-0.16797 0.050782-0.32031 0.035156-0.45312-0.12891-0.67578-0.82422-1.4961-1.4727-2.4414-1.9648-0.12109-0.0625-0.23047-0.14453-0.41797-0.25781 1.1133-0.24609 2.0977-0.55859 2.8594-1.3555 0.24609 0.16797 0.48438 0.3125 0.69531 0.48438zm-3.6562-2.0117c-0.86328 0.52344-2.4297 0.17969-2.5195-0.63281 0.85938 0.21484 1.6914 0.42578 2.5195 0.63281zm-3.9062-0.82812c0.10938 0.019532 0.25391 0.15234 0.28516 0.25781 0.25 0.84766 0.83203 1.293 1.6641 1.5 1.0078 0.25 1.9609 0.15234 2.8594-0.375 0.078125-0.046875 0.20703-0.074219 0.27734-0.039063 0.33203 0.14844 0.64844 0.32031 0.97266 0.48438 0.007813 0.046875 0.019532 0.09375 0.027344 0.14062-0.35156 0.19922-0.67969 0.48047-1.0547 0.58203-0.75781 0.20312-1.5391 0.40234-2.3203 0.4375-0.71484 0.03125-1.4531-0.13672-2.0469-0.61719-0.40625-0.32422-0.76953-0.70312-1.1875-1.0078-0.49219-0.35547-1.0234-0.66406-1.543-0.98047-0.26562-0.16016-0.55078-0.28125-0.91797-0.46484 1.0547-0.09375 2.0234-0.09375 2.9844 0.085937zm-9.6328 2.7773c0.33594-0.74219 0.89062-1.3203 1.6758-1.4844 0.41016-0.085937 0.89453 0.1875 1.3438 0.29297 0.40234 0.09375 0.47656 0.39844 0.5 0.89844-0.10938 0.14844-0.24609 0.46484-0.48438 0.63672-0.81641 0.58984-1.7227 0.80859-2.7031 0.43359-0.39844-0.15234-0.50781-0.39453-0.33203-0.78516zm-2.5312 0.96094c0.25781-0.23438 0.53516-0.44531 0.81641-0.65625 0.19531-0.14844 0.41016-0.28125 0.64062-0.43359 0.027344 0.26562 0.015625 0.47656 0.070313 0.66406 0.23047 0.75391 0.84766 1.0586 1.5391 1.2031 1.0664 0.22656 2.0898 0.023438 2.9805-0.58594 0.64844-0.44531 1.0117-1.1016 0.92578-1.9258 0.23438 0.070313 0.44531 0.14844 0.66406 0.20313 0.26562 0.066406 0.46094-0.050782 0.53516-0.29688 0.078125-0.25781-0.085937-0.41016-0.31641-0.49219-0.67969-0.24609-1.3555-0.49219-2.0352-0.73828-0.003906-0.042969-0.007812-0.082032-0.011718-0.125 0.68359-0.12891 1.3672-0.35156 2.0508-0.34766 0.41016 0.003906 0.82422 0.34766 1.2227 0.56641 0.51953 0.28516 1.0352 0.58203 1.5273 0.91016 0.40234 0.26953 0.76953 0.58984 1.1602 0.89453-0.66016 0.56641-1.4805 0.62891-2.0938-0.027343-0.10547-0.11328-0.19531-0.24609-0.28516-0.375-0.22266-0.3125-0.50781-0.39844-0.76562-0.22266-0.26172 0.17969-0.30078 0.47266-0.039062 0.78125 0.19922 0.23047 0.46484 0.40625 0.70312 0.60547 0.042969 0.035156 0.085938 0.066406 0.19141 0.14844-0.26953 0.1875-0.51172 0.34766-0.74609 0.51953-0.73438 0.54297-1.4648 1.0938-2.1992 1.6367-0.34375 0.25391-0.67188 0.55469-1.0547 0.73437-0.46484 0.21875-0.97656 0.125-1.4453-0.054687-1.3164-0.51172-2.6289-1.0391-3.9336-1.582-0.21875-0.089844-0.39453-0.29297-0.58984-0.44531 0.16016-0.19141 0.30469-0.40234 0.48438-0.57031zm-0.48828 1.7539c1.4531 0.61328 2.9102 1.2266 4.3633 1.8398 0.03125 0.011718 0.0625 0.035156 0.09375 0.039062 0.76562 0.16016 0.98828 0.79297 1.2266 1.4102 0.42188 1.0938 0.84375 2.1914 1.2383 3.2969 0.078125 0.22266 0.085937 0.5 0.039062 0.73828-0.22656 1.1797-0.45703 2.3594-0.74219 3.5234-0.17969 0.73047-0.45312 1.4375-0.72266 2.2617-0.55859-0.32031-1.0352-0.58594-1.5-0.875-0.058593-0.035157-0.078124-0.19922-0.058593-0.28906 0.22266-0.875 0.49219-1.7383 0.67578-2.6172 0.16406-0.78906 0.26562-1.5898 0.17188-2.4062-0.15234-1.3086-0.67969-2.4453-1.625-3.3516-0.375-0.35547-0.84375-0.63672-1.3125-0.86328-0.60156-0.28906-1.2422-0.50391-1.8789-0.71484-0.23828-0.078125-0.33984-0.19531-0.36719-0.42578-0.015625-0.15234-0.42969-1.5391-0.55078-1.9844 0.37109 0.16406 0.65625 0.29688 0.94531 0.41797zm-1.5391 12.812c0.19922-1.2188 0.47266-2.4141 0.91016-3.6172 1.0117 1.2578 1.8789 2.6055 3.3672 3.4609-0.76172 0.17969-1.4258 0.33594-2.1484 0.50781-0.046874-0.26562-0.10547-0.51562-0.13281-0.76953-0.039062-0.375-0.039062-0.75391-0.078125-1.1328-0.027344-0.26172-0.16406-0.46875-0.46094-0.46484-0.27344 0.003906-0.4375 0.17188-0.42578 0.44141 0.023438 0.62891 0.042969 1.2617 0.12109 1.8828 0.085938 0.70703-0.070312 1.375-0.22656 2.043-0.03125 0.015625-0.066407 0.027344-0.097657 0.042969-0.19141-0.30859-0.37891-0.61719-0.57031-0.92578-0.28125-0.45703-0.34375-0.94531-0.25781-1.4688zm-6.9492 10.984c-0.26953 0.40625-0.58984 0.77344-0.875 1.168-0.70703 0.96484-1.668 1.5156-2.8398 1.6797-0.44141 0.0625-0.89453 0.066406-1.3398 0.03125-1.0625-0.089844-1.7578-0.69141-2.1797-1.6523-0.44531-1.0195-0.39453-4.2031 0.48438-5.2227 0.03125-0.066406 0.18359-0.12891 0.26562-0.11328 1.1953 0.23438 2.3945 0.46484 3.5859 0.74219 0.29297 0.070313 0.55469 0.28906 0.82812 0.44141 0.94141 0.51953 1.8789 1.0352 2.8711 1.582-0.25781 0.4375-0.50781 0.90625-0.80469 1.3516zm7.3828-2.7188c-0.17188 0.30469-0.30078 0.63672-0.42578 0.96484-0.16016 0.42188-0.23438 0.5-0.60156 0.37891-0.55469-0.17969-1.1016-0.39453-1.6211-0.58203 0.28516-0.4375 0.55469-0.81641 0.78125-1.2188 0.17188-0.30859 0.085938-0.58594-0.16016-0.72266-0.25-0.13672-0.48828-0.050781-0.6875 0.26953-0.24609 0.39453-0.51562 0.76953-0.9375 0.98828-0.12891 0.066406-0.32422 0.10547-0.44922 0.054687-0.58203-0.21875-1.1523-0.47656-1.7109-0.71094 0.42578-0.3125 0.83984-0.58594 1.2148-0.90625 0.17578-0.14844 0.33594-0.37109 0.38672-0.58594 0.039063-0.15625-0.0625-0.40234-0.18359-0.52734-0.15234-0.15625-0.39453-0.10547-0.51953 0.074219-0.40625 0.60156-1.0117 0.88281-1.6562 1.125-0.35938 0.13672-2.7188-0.83594-2.8906-1.1016 0.50781-0.19922 0.99609-0.39453 1.4805-0.58984 0.10547-0.042969 0.21875-0.082031 0.3125-0.14453 0.26562-0.16406 0.38281-0.46484 0.27734-0.66797-0.12891-0.24609-0.39453-0.32812-0.72266-0.20312-0.47266 0.18359-0.9375 0.37891-1.4102 0.5625-1.375 0.53125-2.7461 0.40234-4.1133-0.03125-0.88281-0.27734-1.7812-0.53516-2.6367-0.88281-1.4141-0.58203-2.7812-1.2695-4.0273-2.1719-0.87891-0.63672-4.3477-3.7539-4.9844-5.6289-0.28125-0.82422-0.62109-1.6406-0.80078-2.4883-0.19922-0.95312-0.23437-1.9336-0.17187-2.9258 0.089843-1.3633 0.38672-2.668 0.99219-3.875 0.33203-0.66406 0.80078-1.2695 1.2617-1.8594 0.40234-0.51172 0.85938-0.98828 1.3281-1.4414 0.81641-0.78516 1.7852-1.3438 2.8203-1.7852 1.7031-0.72266 3.4922-1.0195 5.3398-1.0508 2.2695-0.039063 4.3789 0.57422 6.5078 1.3281 2.1211 0.75 5.8477 3.6797 6.3438 5.5117 0.43359 1.1055 0.75391 2.2461 0.85547 3.4375 0.11328 1.3125 0.125 2.6289-0.11328 3.9297-0.25391 1.3828-0.69922 2.6992-1.5117 3.8711-0.30469 0.44141-0.62891 0.875-0.88672 1.3398-0.078126 0.14062-0.027344 0.41406 0.0625 0.57031 0.125 0.21875 0.375 0.19141 0.58984 0.10156 0.375-0.16016 0.53906-0.51562 0.73828-0.83203 0.13672-0.22266 0.26172-0.44922 0.39063-0.67578 0.023437 0.007813 0.046874 0.011719 0.066406 0.019532-0.019532 0.21484-0.019532 0.4375-0.0625 0.64844-0.15234 0.77344-0.32031 2.7344-0.10547 2.6719 0.36328 0.92188 1.0234 1.6445 1.6875 2.3555 0.31641 0.33984 0.67578 0.64453 1.0469 0.92578 0.19531 0.14844 0.16797 0.26953 0.070312 0.43359-0.39453 0.67578-0.80469 1.3477-1.1836 2.0352zm10.41 12.445c-0.4375 1.0664-1.2773 1.6836-2.3867 1.9492-1.2891 0.30469-2.4844-0.003906-3.5859-0.66016-4.2812-1.5-3.6641-10.273-2.9453-11.789 0.24219-0.75781 1.0664-2.2734 1.332-2.8008 0.12109-0.23438 0.24219-0.30078 0.50781-0.15234 1.4414 0.80469 2.9766 1.3906 4.5586 1.8477 0.61719 0.17969 1.2305 0.35547 1.8555 0.50781 0.24219 0.058594 0.31641 0.16797 0.28906 0.41016-0.16797 1.4531-0.011718 2.8945 0.21094 4.332 0.19531 1.2656 0.39062 2.5312 0.51172 3.8047 0.082032 0.86328-0.015624 1.7422-0.34766 2.5547zm-2.8711-13.441c0.35547-0.51172 0.75391-0.69531 1.1094-0.56641 0.48047 0.17578 0.77344 0.64453 0.73437 1.25-0.61719-0.22656-1.2148-0.44922-1.8438-0.67969zm3.0156 0.84375c-0.09375-0.027344-0.1875-0.23047-0.19922-0.35938-0.089844-1.2266-1.0508-2.1719-2.3242-1.8867-0.35938 0.078125-0.71875 0.30859-1.0039 0.55859-0.41406 0.36328-0.53125 0.42578-0.98438 0.14062-0.10547-0.066406-0.20312-0.14453-0.34375-0.25 0.30078-0.28516 0.5625-0.60938 0.89453-0.82812 0.57422-0.37891 1.1523-0.76562 1.8906-0.82031 1.0273-0.082031 1.8633 0.17969 2.4453 1.082 0.59375 0.92188 1.2031 1.8359 1.8086 2.75-0.03125 0.042968-0.0625 0.085937-0.09375 0.13281-0.69922-0.16797-1.3984-0.32031-2.0898-0.51562zm4.0547 3.9414c-0.039063 0.25-0.14062 0.42969-0.47266 0.42969-0.53516 0-1.0703 0.070312-1.6094 0.10938-0.19531 0.015625-0.27734-0.070313-0.25-0.26562 0.09375-0.67969 0.18359-1.3555 0.27344-2.0078h2.2852c-0.078126 0.61328-0.14453 1.1758-0.23047 1.7344zm-0.46094-3.3594c-0.074219 0-0.16797-0.070312-0.21094-0.13672-0.019531-0.03125 0.039062-0.15625 0.09375-0.1875 0.36719-0.23047 0.72266-0.48828 1.1172-0.66016 0.44531-0.19141 1.0156 0.12891 1.1602 0.58594 0.11328 0.35938 0.011718 0.48828-0.37109 0.47266-0.054688 0-0.11328-0.011719-0.16797-0.015625v-0.054688c-0.53906 0-1.082 0.003907-1.6211-0.007812zm3.5625 2.8789c-0.046876 0.24609-0.16016 0.38672-0.44141 0.43359-0.55859 0.09375-1.1094 0.24219-1.7148 0.37891 0.10547-0.73437 0.19922-1.3555 0.29687-2.0312 0.66406-0.042968 1.3633-0.089843 2.1133-0.14062-0.089844 0.48828-0.16797 0.92187-0.25 1.3555zm2.2617-0.29687c-0.40625 0.14453-0.81641 0.28125-1.293 0.44141 0.097656-0.55078 0.16797-1.0078 0.27344-1.4609 0.019531-0.085937 0.16016-0.17969 0.25781-0.19922 0.21875-0.042969 0.45312-0.007813 0.66797-0.0625 0.3125-0.078126 0.42578 0.070312 0.52734 0.32812 0.27344 0.69922 0.28125 0.69531-0.43359 0.95313zm0.73047-2.9492c-0.28516 0.074219-0.43359-0.058594-0.58984-0.28516 0.23047-0.18359 0.46094-0.35547 0.67188-0.54297 0.54688-0.48828 1.0781-0.99219 1.625-1.4844 0.25391-0.23047 0.51562-0.44531 0.77734-0.66406 0.078125-0.066406 0.19922-0.11328 0.23438-0.19531 0.058594-0.14453 0.13281-0.35938 0.070313-0.44922-0.082032-0.11328-0.32813-0.21875-0.44922-0.17578-0.29297 0.10938-0.58203 0.26953-0.82031 0.47266-0.47266 0.39453-0.91016 0.83594-1.3711 1.25-0.39062 0.35156-0.78906 0.6875-1.2383 1.0781-0.28906-0.42188-0.55078-0.80078-0.8125-1.1797 0.44531-0.375 0.86719-0.74219 1.3008-1.0898 0.28516-0.23047 0.375-0.45312 0.22656-0.66797-0.16016-0.23047-0.47656-0.23828-0.75781-0.011719-0.375 0.29688-0.73437 0.61328-1.1211 0.89453-0.074219 0.054687-0.28906 0.050781-0.34375-0.011719-0.27344-0.32031-0.51953-0.66406-0.82812-1.0703 0.26562-0.023437 0.45312-0.046875 0.64062-0.054687 1.8477-0.066407 3.6875-0.20312 5.4531-0.78906 1.5664-0.52344 3.125-1.0898 4.5469-1.9492 1.0547-0.63672 1.8359-1.5469 2.5312-2.6055 0.73047 0.57031 1.1328 1.3242 1.3477 2.2461-0.44531-0.023437-0.73828 0.21875-0.92188 0.53125-0.13672 0.23047-0.1875 0.54297-0.17578 0.8125 0.011719 0.20313 0.14453 0.44141 0.29688 0.58203 0.22266 0.20703 0.23047 0.375 0.035156 0.57422-0.34375 0.35547-0.69141 0.70703-1.0391 1.0625-0.042969-0.023437-0.085938-0.046874-0.12891-0.070312 0.019531-0.16016 0.03125-0.32031 0.054688-0.47656 0.066406-0.47656 0.12891-0.95313 0.19922-1.4297 0.10547-0.74609 0.27734-1.4727 0.71094-2.1094 0.21094-0.3125 0.19531-0.54297-0.023437-0.69531-0.22656-0.16016-0.60156-0.082031-0.73828 0.21875-0.25 0.55859-0.44922 1.1406-0.66406 1.7148-0.035156 0.09375-0.058594 0.19531-0.089844 0.29297-0.44531-0.070313-0.87109-0.16406-1.3008-0.1875-0.27344-0.015625-0.5625 0.046875-0.82031 0.14062-0.11719 0.042969-0.25 0.24219-0.25 0.375-0.003906 0.19531 0.16016 0.29297 0.38281 0.30859 0.48828 0.03125 0.97656 0.089844 1.4648 0.14062 0.25391 0.027343 0.40234 0.12109 0.33203 0.42578-0.078125 0.35156-0.10938 0.71484-0.16797 1.125-0.57812-0.31641-1.1016-0.59766-1.6172-0.88672-0.92578-0.51562-1.9023-0.65625-2.9258-0.36328-0.20312 0.058594-0.39844 0.17969-0.55859 0.32031-0.078124 0.066407-0.12891 0.28516-0.082031 0.35156 0.089844 0.11719 0.26172 0.23047 0.40234 0.24219 0.19531 0.011719 0.40234-0.058593 0.59375-0.12109 0.90234-0.28906 1.6797 0.027343 2.4414 0.47266 0.5 0.29297 1.0195 0.55469 1.5312 0.83203 0.039063 0.019532 0.074219 0.046875 0.19141 0.11719-0.46094 0.26953-0.87891 0.5-1.2852 0.76172-0.32031 0.20313-0.53516 0.16797-0.77344-0.14844-0.55078-0.72266-1.957-0.79688-2.6523-0.41016-0.83984 0.46094-1.4492 1.1211-1.7109 2.0625-0.058593 0.21484-0.14844 0.39062-0.375 0.44531-0.47656 0.10938-0.95703 0.1875-1.4297 0.30859zm5.5547-1.6211c-0.91406 0.41016-1.8086 0.76953-2.8633 0.97656 0.40625-0.76172 0.78516-1.3945 1.6289-1.5234 0.49609-0.074219 0.94531 0.10938 1.2344 0.54297zm5.2383 8.082c-0.58203 1.3984-1.9102 2.1055-3.5039 1.832-0.76172-0.12891-1.4688-0.4375-2.0547-0.9375-0.58594-0.50391-2.9609-3.0859-3.793-6.0703 2.9336-0.69141 5.6055-1.8828 8.2305-3.3945 0.17188 0.36719 0.375 0.71484 0.50781 1.0898 0.28906 0.80859 0.59766 1.6211 0.80859 2.4531 0.42188 1.6875 0.48828 3.3828-0.19531 5.0312zm0.03125-16.461c-0.16016-0.1875-0.3125-0.39062-0.49219-0.57031-0.30469-0.30859-0.27734-0.67969-0.097656-0.98438 0.34766-0.58594 0.76172-1.1289 1.1562-1.6836 0.20312-0.28516 0.42969-0.55469 0.69922-0.81641 0.48438 1.7969 0.4375 3.5586-0.19922 5.2969-0.035156 0.007813-0.074219 0.019532-0.10938 0.027344-0.078125-0.13672-0.15625-0.26953-0.23047-0.40625 0.29297-0.44141 0.32031-0.66406 0.10938-0.89453-0.1875-0.20703-0.46484-0.20312-0.83984 0.03125z"/>
  <path d="m36.867 40.371c-1.1523-0.28516-2.293 0.50391-2.8203 1.5-1.1055 1.9688 0.20703 4.5156 2.6289 3.8008 1.2109-0.37109 1.9648-1.6289 1.9453-2.8633v-0.019532c0.039062-1.1445-0.59375-2.1758-1.75-2.4219z"/>
  <path d="m29.875 42.449c-0.1875 0.12891-0.28516 0.42188-0.36328 0.66016-0.10547 0.32031-0.13672 0.66797-0.23047 0.99609-0.027344 0.10156-0.16797 0.26172-0.23047 0.25-0.11328-0.019531-0.23828-0.13281-0.30469-0.23828-0.11719-0.17969-0.19531-0.39063-0.28906-0.58594-0.26953-0.55859-0.85547-0.64844-1.2539-0.17969-0.11719 0.14063-0.19141 0.31641-0.30078 0.46094-0.14062 0.17969-0.30078 0.34375-0.45312 0.51562-0.046875-0.015625-0.089844-0.03125-0.13672-0.046875-0.046875-0.52734-0.097656-1.0547-0.13672-1.582-0.027343-0.35547-0.19531-0.55859-0.50391-0.58594-0.33984-0.03125-0.66406 0.16797-0.67188 0.5-0.011719 0.625-0.054688 1.2734 0.089844 1.8672 0.17578 0.71484 0.79688 1.2617 1.6133 1 0.38281-0.125 0.70703-0.42969 1.0898-0.67969-0.003907-0.007812 0.023437 0.023438 0.042969 0.066407 0.42578 0.85547 1.5391 1.0469 2.2188 0.34766 0.63672-0.65625 0.74609-1.4883 0.67969-2.332-0.039063-0.47266-0.49609-0.68359-0.86328-0.42969z"/>
  <path d="m23.75 37.863c-0.89844-0.24219-1.6523 0.57031-1.9727 1.332-0.21875 0.51953-0.37891 1.0977-0.35938 1.6641v0.019531c0.019531 1.3906 1.4844 2.1836 2.4297 1 0.69922-0.82031 1.2734-3.6172-0.09375-4.0117z"/>
  <path d="m59.305 44.973c1.4336 0.64062 2.9414 1.0859 4.5547 0.80469 0.78516-0.13672 1.4688-0.48438 1.9023-1.1758 0.35547-0.5625 0.52344-1.1914 0.50391-1.8672-0.019531-0.69531-0.19141-1.3438-0.52734-1.9648-0.48438-0.89062-1.168-1.5508-2.0703-1.9805-0.87891-0.42187-1.8008-0.55859-2.7773-0.41016-1.2422 0.1875-2.3828 0.57422-3.2695 1.5039-0.74609 0.78125-0.93359 1.7109-0.57031 2.7344 0.39844 1.1094 1.2148 1.8945 2.25 2.3555zm-0.83203-4.6562c0.87109-0.78906 1.9492-1.0508 3.0938-1.125 1.082-0.070312 1.9922 0.33984 2.7148 1.0898 0.78906 0.82031 1.2656 1.8281 1.0273 2.9922-0.21484 1.0547-0.68359 1.5234-1.9062 1.7031-0.10156 0.015626-0.20703 0.015626-0.30859 0.019532-0.003906 0.03125-0.011719 0.0625-0.015625 0.089844-0.56641-0.11328-1.1445-0.19531-1.6953-0.35156-0.57422-0.16406-1.1523-0.35547-1.6836-0.625-0.95312-0.47656-1.6758-1.1719-1.8242-2.3047-0.082031-0.61719 0.17969-1.1055 0.60547-1.4922z"/>
  <path d="m60.32 42.355c0.72266 0.46875 1.5312 0.75 2.3672 0.89844 0.4375 0.078125 0.89062 0.023438 1.1758-0.44141 0.25391-0.41406 0.19531-0.82812 0.015625-1.2227-0.51562-1.1289-1.6914-1.6406-2.918-1.25-0.64453 0.20703-1.0859 0.67969-1.1055 1.1914-0.011719 0.36719 0.17188 0.63672 0.46484 0.82422zm0.71875-1.1133c0.25-0.12109 0.53906-0.16406 0.6875-0.20313 0.68359 0.023438 1.1914 0.42188 1.3594 0.96094 0.10547 0.32812-0.046876 0.51953-0.375 0.41016-0.58594-0.19531-1.1602-0.42969-1.7227-0.67969-0.25-0.10938-0.23047-0.35156 0.050781-0.48828z"/>
 </g>
<text x="0.0" y="117.5" font-size="5.0" font-weight="bold" font-family="Arbeit Regular, Helvetica, Arial-Unicode, Arial, Sans-serif" fill="#000000">Created by Teny Septiani</text><text x="0.0" y="122.5" font-size="5.0" font-weight="bold" font-family="Arbeit Regular, Helvetica, Arial-Unicode, Arial, Sans-serif" fill="#000000">from Noun Project</text></svg>