<svg width="2085" height="1653" viewBox="0 0 2085 1653" fill="none" xmlns="http://www.w3.org/2000/svg">
<path d="M1808.77 1309.14C1808.11 1295.5 1809.68 1283.6 1817.42 1272.38C1828.52 1256.31 1856.38 1244.86 1876.74 1254.43C1878.5 1255.26 1880.37 1255.87 1883.25 1257C1889.36 1247.56 1896.17 1238.18 1901.79 1228.13C1918.14 1198.86 1935 1169.81 1949.77 1139.74C1963.37 1112.08 1975.09 1083.44 1986.62 1054.82C2000.89 1019.42 2012.14 982.976 2021.27 945.912C2028.17 917.935 2034.23 889.766 2037.17 861.064C2038.97 843.612 2039.84 826.068 2041.29 808.579C2044.54 769.389 2040.33 730.642 2035.52 691.807C2030.7 652.817 2021.62 614.893 2009.11 577.831C1995.72 538.146 1978.82 499.976 1957.89 463.51C1938.63 429.941 1916.79 398.271 1892.52 368.249C1869.27 339.477 1843.32 313.219 1815.89 288.411C1786.24 261.603 1754.59 237.402 1721.28 215.357C1682.7 189.823 1642.61 166.937 1600.3 148.171C1573.91 136.467 1547.45 124.785 1520.46 114.61C1465.79 94.0066 1409.75 77.7782 1352.31 66.9206C1320.15 60.8424 1287.79 55.7541 1255.4 51.0645C1238.06 48.5533 1220.47 47.5176 1202.96 46.3937C1186.07 45.3097 1169.14 44.8427 1152.22 44.338C1136.44 43.8673 1120.62 42.9626 1104.86 43.5789C1081.43 44.4961 1058.02 46.4433 1034.62 48.2235C1019.78 49.3533 1004.88 50.3981 990.156 52.4903C953.086 57.7561 916.384 65.0269 880.206 74.7433C868.358 77.9252 856.623 81.5358 844.883 85.1019C841.374 86.1676 838.126 87.7031 837.324 92.0471C832.417 118.643 799.497 124.025 783.85 109.867C783.368 109.43 782.734 109.161 781.44 108.362C767.692 114.498 753.292 120.394 739.362 127.246C705.318 143.992 672.653 163.176 641.66 185.071C601.358 213.543 564.342 245.755 530.805 282.066C503.435 311.698 478.606 343.257 456.483 376.889C431.239 415.267 409.568 455.606 391.862 498.086C377.801 531.821 365.541 566.125 356.405 601.511C349.782 627.166 344.419 653.08 340.912 679.373C336.383 713.328 334.211 747.417 335.455 781.643C335.983 796.173 337.872 810.654 339.189 825.68C351.559 830.534 362.875 836.91 365.146 851.552C367.298 865.424 363.138 877.224 351.202 885.588C358.493 912.764 367.194 938.71 378.715 963.788C388.725 985.577 399.805 1006.69 412.666 1026.92C428.568 1051.92 446.616 1075.27 466.305 1097.39C497.837 1132.81 533.623 1163.47 572.591 1190.26C607.954 1214.57 644.952 1236.33 685.157 1251.8C710.507 1261.56 736.11 1270.85 762.088 1278.74C792.529 1287.99 823.876 1293.38 855.543 1297.01C885.649 1300.45 915.825 1302.24 945.999 1300.02C968.384 1298.36 990.771 1295.49 1012.88 1291.6C1061.52 1283.04 1107.84 1267.24 1151.92 1244.83C1196.4 1222.22 1236.63 1193.81 1272.81 1159.41C1300.18 1133.38 1324.34 1104.72 1344.9 1073.15C1373.46 1029.31 1393.31 981.768 1402.28 930.039C1409.18 890.268 1407.71 850.759 1395.67 812.079C1389.36 791.808 1381.41 772.109 1367.89 754.455C1351.91 761.847 1335.67 764.002 1319.03 756.777C1309.17 752.495 1301.67 745.549 1296.84 736.192C1284.2 711.683 1290.83 687.64 1308 672.911C1326.83 656.76 1351.69 655.283 1372 670.611C1390.03 684.212 1399.66 709.973 1383.07 740.438C1388.66 750.246 1394.73 759.795 1399.73 769.87C1411.03 792.621 1417.47 816.828 1421.58 841.917C1425.04 863.029 1426.02 884.164 1424.44 905.27C1422.21 935.04 1416.46 964.213 1406.45 992.55C1397.69 1017.38 1386.92 1041.22 1373.96 1064.07C1360.99 1086.94 1346.13 1108.56 1329.28 1128.76C1315.01 1145.85 1300.04 1162.23 1283.77 1177.5C1254.8 1204.7 1223.23 1228.23 1189.06 1248.44C1154.33 1268.98 1117.7 1285.24 1079.24 1297.16C1054.94 1304.69 1030.12 1310.29 1004.89 1314.3C964.7 1320.7 924.371 1322.01 883.816 1320.45C847.981 1319.06 812.661 1313.59 777.87 1305.55C740.355 1296.88 703.923 1284.6 668.592 1268.9C631.749 1252.53 596.402 1233.62 562.933 1211.24C537.506 1194.23 513.673 1175.13 490.817 1154.78C455.675 1123.5 425.392 1087.97 399.2 1049.02C376.526 1015.31 357.583 979.555 344.422 940.96C338.87 924.678 333.597 908.3 327.836 890.874C315.249 887.465 304.882 880.141 302.28 865.119C299.771 850.635 303.998 839.013 317.046 830.966C316.442 819.365 315.418 807.816 315.322 796.261C315.082 767.291 313.516 738.187 315.676 709.376C319.096 663.742 327.712 618.818 341.214 574.935C355.006 530.114 371.246 486.269 392.798 444.547C408.357 414.427 425.374 385.193 444.37 357.031C471.995 316.074 503.372 278.368 538.424 243.648C572.761 209.636 610.233 179.441 650.849 153.306C689.45 128.468 729.773 106.746 772.529 89.9648C773.153 86.4365 773.761 83.21 774.291 79.9707C776.456 66.7388 784.739 58.8824 796.907 54.7497C808.749 50.7279 819.362 53.7092 827.942 62.3383C832.177 66.5971 835.489 66.6409 841.049 65.0446C860.138 59.5645 879.506 55.0496 898.789 50.2549C910.675 47.2997 922.476 43.7339 934.533 41.7954C961.3 37.4918 988.136 33.4373 1015.07 30.4361C1035.8 28.1262 1056.72 27.1441 1077.58 26.3584C1102.15 25.4329 1126.77 24.7297 1151.35 25.1013C1172.54 25.4214 1193.7 27.3937 1214.88 28.6198C1245.32 30.3825 1275.35 35.2844 1305.5 39.5562C1332.77 43.4192 1359.67 48.8789 1386.45 54.776C1427.26 63.7605 1467.46 75.3078 1506.89 89.1827C1537.85 100.076 1568.3 112.263 1598.32 125.687C1634.76 141.979 1669.97 160.454 1704.08 181.005C1741.11 203.316 1776.59 227.96 1809.22 256.424C1828.25 273.023 1847.41 289.597 1865.06 307.61C1885.26 328.227 1904.22 350.023 1921.76 373.126C1941.51 399.133 1959.53 426.113 1975.77 454.396C1993.03 484.447 2007.35 515.875 2019.35 548.276C2030.49 578.378 2038.92 609.298 2045.67 640.797C2058.14 698.999 2061.15 757.73 2058.5 816.9C2057.83 831.723 2055.34 846.478 2053.38 861.224C2051.54 874.999 2049.62 888.776 2047.18 902.451C2042.27 929.869 2035.75 956.949 2027.06 983.396C2018.27 1010.14 2009.16 1036.82 1998.87 1063C1985.4 1097.28 1969.6 1130.51 1952.39 1163.15C1934.7 1196.72 1915.25 1229.13 1894.19 1260.63C1893.65 1261.44 1893.34 1262.41 1892.93 1263.26C1914.09 1284.9 1912.43 1309.85 1902.52 1327.09C1893.26 1343.2 1871.33 1355.22 1849.87 1351.67C1829.6 1348.32 1810.72 1329.91 1808.77 1309.14Z" fill="#F9F9F9" stroke="#F9F9F9" stroke-width="50"/>
<path d="M1760.44 782.364C1763.5 802.11 1767.46 820.939 1769.04 839.965C1770.74 860.456 1770.48 881.131 1770.6 901.728C1770.83 937.301 1766.86 972.475 1760.44 1007.46C1753.54 1045.08 1742.42 1081.42 1730.04 1117.55C1717.83 1153.2 1702.61 1187.44 1685.04 1220.61C1660.58 1266.79 1632.04 1310.29 1598.71 1350.73C1560.23 1397.41 1516.78 1438.72 1468.27 1474.65C1433.21 1500.61 1395.92 1523.08 1356.54 1542.01C1325.4 1556.98 1293.68 1570.49 1260.71 1580.91C1245.56 1585.69 1230.33 1590.22 1215.02 1594.43C1210.55 1595.66 1208.68 1598.02 1207.22 1602.17C1205.4 1607.36 1202.97 1612.5 1199.88 1617.04C1190.57 1630.73 1161.64 1631.22 1151.44 1616.64C1150.11 1614.74 1148.55 1613 1146.86 1610.9C1132.61 1612.9 1118.26 1615.04 1103.88 1616.91C1087.49 1619.04 1071.08 1621.1 1054.64 1622.91C1012.58 1627.57 970.326 1626.83 928.149 1626.07C902.514 1625.6 876.897 1623.1 851.316 1620.97C831.53 1619.33 811.776 1617.13 792.077 1614.64C779.282 1613.02 766.513 1610.89 753.904 1608.18C722.849 1601.51 691.792 1594.8 660.924 1587.32C624.82 1578.58 589.543 1566.94 554.749 1554.01C511.538 1537.95 469.452 1519.35 428.76 1497.51C395.072 1479.42 362.255 1460 330.995 1438.04C300.249 1416.43 271.102 1392.83 243.721 1367.01C217.58 1342.36 193.208 1316.18 170.679 1288.18C147.917 1259.89 127.924 1229.83 109.847 1198.38C91.5863 1166.6 76.3571 1133.44 64.1149 1098.99C56.6865 1078.08 49.871 1056.83 44.7098 1035.27C39.6442 1014.11 34.1203 992.963 32.4347 971.033C30.738 948.958 26.9071 927.028 25.6753 904.941C24.5688 885.101 24.9029 865.086 26.0909 845.237C27.4736 822.137 30.1968 799.101 32.8965 776.104C34.2066 764.943 36.2478 753.8 38.9043 742.88C45.1549 717.185 51.2081 691.4 58.783 666.083C66.0796 641.696 74.5491 617.605 83.6908 593.841C91.6458 573.162 100.688 552.847 110.287 532.869C121.633 509.254 133.575 485.888 146.233 462.953C156.653 444.071 168.48 425.965 179.722 407.539C182.3 403.313 185.034 399.183 188.078 394.412C175.227 382.315 168.088 367.708 169.427 350.21C170.414 337.324 175.402 325.378 185.378 316.96C204.531 300.798 226.616 296.695 249.416 312.414C271.443 327.599 275.941 353.554 265.745 375.251C255.77 396.479 231.204 411.315 197.294 400.499C188.981 414.176 180.103 427.777 172.244 441.943C159.201 465.452 146.084 488.97 134.331 513.132C118.942 544.766 104.584 576.958 93.1552 610.263C83.3624 638.8 73.7786 667.498 66.1445 696.659C59.1207 723.489 54.0027 750.898 49.5295 778.294C44.2326 810.735 42.2204 843.551 42.6619 876.467C43.0757 907.316 46.0545 937.913 50.4757 968.456C57.5438 1017.28 70.7807 1064.37 89.1284 1110.03C102.639 1143.66 119.034 1175.91 137.959 1206.85C161.438 1245.23 188.285 1281.16 219.114 1313.85C244.898 1341.2 271.473 1367.91 301.625 1390.61C323.908 1407.38 346.067 1424.42 369.273 1439.84C389.707 1453.43 411.457 1465.05 432.73 1477.35C460.962 1493.69 490.444 1507.58 520.721 1519.53C553.397 1532.43 586.348 1544.77 619.704 1555.76C657.799 1568.31 696.692 1578.34 736.242 1585.3C768.149 1590.91 800.104 1596.55 832.249 1600.43C861.489 1603.95 890.987 1605.62 920.422 1607.15C942.575 1608.3 964.856 1609 986.993 1607.98C1016.72 1606.62 1046.4 1603.82 1076.02 1600.84C1095.42 1598.89 1114.69 1595.57 1134 1592.77C1137.25 1592.3 1140.43 1591.4 1143.78 1590.66C1147.36 1576.8 1155.51 1567.81 1169.44 1564.23C1183.95 1560.49 1194.35 1567.56 1203.74 1576.78C1264.56 1561.08 1321.95 1537.83 1376.67 1508.1C1419.42 1484.87 1459.32 1457.22 1496.22 1425.54C1527.76 1398.46 1557.12 1369.03 1583.27 1336.61C1616.33 1295.64 1645.3 1251.89 1669.28 1205.02C1702.83 1139.41 1727.04 1070.4 1740.22 997.85C1748.92 950.004 1751.86 901.547 1748.35 853.003C1746.51 827.654 1742.65 802.404 1736.49 777.399C1723.41 773.741 1712.5 767.781 1708.72 753.435C1705.15 739.91 1708.79 728.606 1718.74 718.985C1711.84 698.593 1702.78 679.437 1693.03 660.55C1673.1 621.913 1647.94 586.874 1618.9 554.715C1596.63 530.059 1572.63 507.102 1546.39 486.548C1507.25 455.887 1465.46 429.565 1420.34 408.646C1372.93 386.659 1323.58 370.468 1272.16 360.958C1247.07 356.319 1221.86 352.468 1196.23 352.24C1187.3 352.161 1178.37 351.081 1169.44 351.024C1130.2 350.774 1091.45 355.154 1053.14 363.682C1005.22 374.349 959.903 391.714 916.874 415.324C870.123 440.976 828.708 473.46 792.122 512.108C763.184 542.676 738.696 576.614 719.261 613.933C702.337 646.432 690.077 680.738 683.43 716.916C675.742 758.756 677.306 800.175 689.471 840.986C692.47 851.047 696.93 860.672 700.698 870.443C738.996 857.809 760.377 874.609 769.631 893.627C781.007 917.008 772.054 944.306 753.322 957.433C736.369 969.314 705.224 970.28 688.133 952.436C671.718 935.297 666.836 907.722 685.003 883.557C680.777 872.116 676.016 860.802 672.414 849.13C665.654 827.225 661.451 804.879 660.431 781.807C658.584 740.049 664.683 699.714 678.183 660.193C697.368 604.032 727.834 554.817 766.591 510.139C798.216 473.683 834.394 442.674 874.508 416.234C906.175 395.362 939.984 378.538 975.509 364.974C1005.35 353.581 1036.01 345.327 1067.22 339.34C1086.66 335.61 1106.56 333.918 1126.33 332.421C1145.49 330.97 1164.77 330.252 1183.98 330.492C1200.45 330.697 1216.89 332.906 1233.36 333.881C1258.27 335.356 1282.58 340.511 1306.68 346.362C1327.91 351.517 1348.94 357.682 1369.75 364.368C1397.9 373.414 1424.82 385.605 1451.12 399.069C1480.41 414.07 1508.53 430.932 1535.49 449.997C1570.43 474.703 1602.15 502.811 1631.36 533.902C1653.22 557.178 1672.68 582.369 1690.06 609.163C1709.81 639.609 1726.32 671.698 1738.79 705.799C1740.34 710.035 1742.38 712.11 1747.02 712.998C1759.65 715.414 1767.85 723.38 1770.44 735.875C1773.08 748.638 1770.9 760.436 1758.74 769.631C1759.2 773.159 1759.75 777.346 1760.44 782.364Z" fill="#F9F9F9" stroke="#F9F9F9" stroke-width="50"/>
<path d="M1120.14 796.071C1096.1 851.588 1072.46 906.45 1048.74 961.275C1021.2 1024.94 993.573 1088.57 965.975 1152.21C965.194 1154.01 964.306 1155.77 963.314 1157.87C957.962 1157.87 952.728 1157.87 945.943 1157.87C967.945 1105.24 991.246 1053.74 1013.54 1001.82C1035.92 949.675 1058.8 897.739 1081.53 845.735C1104.22 793.799 1126.98 741.893 1150.28 688.688C1067.02 688.688 985.297 688.688 903.104 688.688C903.104 682.977 903.104 678.129 903.104 673.115C990.562 673.115 1077.49 673.115 1164.92 673.115C1165.04 681.518 1166.56 689.541 1162.96 697.686C1148.61 730.169 1134.62 762.814 1120.14 796.071Z" fill="#F4F4F4" stroke="#F4F4F4" stroke-width="50"/>
</svg>
