<svg width="94" height="78" viewBox="0 0 94 78" fill="none" xmlns="http://www.w3.org/2000/svg">
<path d="M4.03562 47.5366C3.26888 46.6027 2.55979 45.6399 2.43301 44.3717C2.39842 44.0143 2.30041 43.6453 2.14476 43.3225C1.75275 42.5211 1.23389 41.7774 0.899526 40.9588C0.0981904 38.9987 -0.126633 36.9347 0.0636023 34.8421C0.225029 33.0551 0.582437 31.3083 1.59713 29.7747C2.12752 28.9734 3.25745 28.6621 4.11639 29.1175C4.82549 29.4922 5.41928 30.0169 5.88622 30.6856C6.30707 31.2909 6.76827 31.8732 7.2064 32.4612C7.76561 30.9969 8.24986 29.5383 8.87247 28.1489C9.50086 26.7595 10.2676 25.4337 10.919 24.1941C10.1984 24.1595 9.40289 24.2172 8.65332 24.0673C6.73355 23.6926 5.09625 22.7471 3.93181 21.1676C3.33225 20.3547 2.85376 19.4323 2.44446 18.5041C1.65466 16.6939 1.35488 14.7857 1.62582 12.814C1.75842 11.857 2.45598 11.1595 3.34385 11.1192C5.29815 11.0385 7.13144 11.5343 8.87249 12.3702C9.60463 12.7218 10.2849 13.1888 11.017 13.6154C10.994 13.552 10.9882 13.4886 10.9594 13.4309C10.3483 12.2203 10.0716 10.9232 10.1753 9.58564C10.3713 7.02595 11.386 4.79492 13.2712 3.03661C14.9603 1.45702 16.9838 0.465406 19.2783 0.0791796C20.7541 -0.174487 21.2556 0.182951 21.6765 1.12841C22.2242 2.35058 22.4145 3.67659 22.4606 5.03126C22.5528 7.82724 21.8495 10.3466 20.0046 12.5027C19.1975 13.4539 18.1886 14.117 17.0184 14.4743C16.1422 14.7452 15.2139 14.8547 14.1763 15.0565C14.3377 16.3594 14.5106 17.7718 14.7009 19.3111C19.8663 13.3327 26.3461 10.6002 33.9325 10.606C41.5422 10.6118 48.0395 13.4309 53.2394 19.1266C53.545 18.6942 53.764 18.2849 54.0696 17.9621C55.0381 16.9186 56.0009 15.8751 57.0328 14.9009C57.6842 14.284 58.4164 13.7306 59.1773 13.2521C60.0939 12.6698 61.0566 12.1394 62.0425 11.684C63.207 11.1421 64.3888 10.5944 65.6111 10.237C66.9774 9.8392 68.4013 9.61436 69.8138 9.38378C72.3793 8.96293 74.9562 9.11858 77.487 9.6259C79.0666 9.94297 80.6347 10.4388 82.1393 11.0153C85.0045 12.1164 87.4142 13.892 89.3455 16.2902C89.8932 16.9705 90.4005 17.6853 90.9251 18.3887C91.7552 19.5014 92.3202 20.7524 92.7987 22.0438C93.427 23.7444 93.6865 25.5143 93.8018 27.3245C93.9055 28.956 93.7845 30.5701 93.4443 32.1497C93.1676 33.4122 92.7352 34.6517 92.2625 35.8623C91.9339 36.704 91.4439 37.4824 90.9885 38.2721C90.6599 38.8313 90.2909 39.3732 89.8989 39.8921C89.4089 40.5435 88.9073 41.195 88.3596 41.8004C87.8177 42.3884 87.2239 42.9303 86.6243 43.4664C85.8575 44.1582 85.1082 44.8731 84.278 45.4784C83.321 46.1818 82.3122 46.839 81.2686 47.4097C80.0753 48.0669 78.8184 48.6146 77.579 49.1911C76.9679 49.4735 76.3338 49.6984 75.7112 49.9463C75.9995 50.6496 76.3165 51.278 76.5183 51.9353C77.0602 53.659 77.3196 55.4231 77.1236 57.2391C76.9219 59.1185 76.4318 60.8653 75.0829 62.295C73.7339 63.7248 72.0447 64.3531 70.1422 64.5088C69.0065 64.601 67.8824 64.4454 66.7813 64.1283C65.5187 63.7594 64.3138 63.2636 63.2934 62.422C62.7169 61.9492 62.1635 61.4188 61.6908 60.8424C60.9529 59.9373 60.2726 58.9861 59.6038 58.0291C59.2464 57.5218 58.9697 56.9568 58.6411 56.3861C58.1741 56.5763 57.7821 56.7608 57.3728 56.9049C56.1391 57.3315 54.8996 57.7351 53.6717 58.1675C53.5679 58.202 53.4411 58.3981 53.4468 58.5134C53.4987 59.4358 53.5967 60.3582 53.6486 61.2863C53.7697 63.6326 53.4641 65.9386 52.8588 68.2043C52.4553 69.6974 51.7346 71.058 50.8756 72.3263C50.0685 73.5197 49.1 74.6093 47.9297 75.4452C46.5864 76.408 45.0875 77.0767 43.4214 77.365C40.6197 77.8435 38.0945 77.3246 35.8232 75.5721C34.6933 74.7016 33.9207 73.5948 33.425 72.2918C32.5775 70.0493 32.6928 67.7375 33.0272 65.4257C33.1771 64.3765 33.3673 63.3388 33.546 62.2666C28.8995 62.4222 24.5123 61.5229 20.2347 59.8396C20.1425 59.9491 20.0156 60.0529 19.958 60.1855C19.4507 61.3904 18.8223 62.5202 18.0959 63.6041C17.2081 64.93 16.1359 66.0888 14.833 66.965C13.2764 68.0142 11.5066 68.5908 9.5926 68.5619C7.89775 68.533 6.35845 68.0027 5.0209 66.9708C4.55393 66.6133 4.1158 66.1867 3.76989 65.714C3.1934 64.9242 2.54773 64.1287 2.22484 63.2293C1.69446 61.7535 1.51574 60.1911 1.5561 58.5943C1.61952 56.1268 2.19026 53.7978 3.14721 51.5553C3.57958 50.5406 4.09843 49.5548 4.55963 48.5516C4.61728 48.4248 4.64034 48.2115 4.57116 48.1135C4.42127 47.8944 4.19068 47.733 4.01772 47.5255L4.03562 47.5366ZM9.42007 35.0727C8.81474 36.0989 8.97616 36.5428 9.91586 37.3672C10.7345 38.0878 11.6107 38.7566 12.4813 39.4195C12.8272 39.6847 13.2308 39.8749 13.6055 40.0998C13.9399 40.2958 14.1474 40.5725 13.9456 40.9415C13.7496 41.2989 13.4268 41.3739 13.029 41.2009C11.6281 40.584 10.4233 39.6905 9.31063 38.647C9.10309 38.451 8.91283 38.2434 8.69376 38.0186C8.47469 38.474 8.72835 38.745 8.92436 39.0736C9.4951 40.0421 10.3253 40.7281 11.2188 41.3623C12.343 42.1579 13.5594 42.7747 14.845 43.2474C15.8654 43.6221 16.903 43.9392 17.9524 44.2908C17.9524 43.8181 18.0331 43.4319 17.9235 43.1148C17.8544 42.9188 17.5142 42.7862 17.2663 42.6939C16.5803 42.4287 15.8712 42.2212 15.1851 41.956C14.8334 41.8177 14.7297 41.5063 14.8853 41.1547C15.0468 40.7915 15.3465 40.6358 15.7213 40.7569C16.1825 40.9068 16.6206 41.1259 17.0703 41.2988C17.3297 41.4026 17.6006 41.4775 17.935 41.5871V39.6788C14.6374 39.0504 11.6915 37.6783 9.40865 35.0783L9.42007 35.0727ZM10.6826 31.7751C10.1811 32.1844 9.91009 33.4931 10.429 34.1214C11.8183 35.7817 13.5306 36.9347 15.5079 37.7245C16.3208 38.0474 17.174 38.2491 18.0733 38.5201C18.1829 37.6092 18.2809 36.8137 18.3962 35.9028C15.41 35.3321 12.8215 33.9543 10.6768 31.7808L10.6826 31.7751ZM12.2507 20.003C12.1066 19.3054 11.9913 18.6021 11.778 17.9276C11.4609 16.9303 10.6999 16.2328 9.96769 15.5524C8.62444 14.3072 7.0045 13.5751 5.22317 13.1657C4.86573 13.085 4.51984 12.9524 4.01252 12.7967C4.01252 13.3617 3.94335 13.8287 4.02406 14.2726C4.26043 15.5812 4.4622 16.9072 4.85998 18.1697C5.32118 19.6225 6.24935 20.7927 7.62718 21.5423C8.46887 21.9977 9.35671 22.2225 10.3136 22.0784C10.5039 22.0496 10.6826 21.9573 10.9478 21.8651C10.6077 21.3347 10.3425 20.8447 9.99658 20.4123C9.39125 19.6398 8.74557 18.8904 8.09408 18.1525C7.84041 17.8643 7.54064 17.6164 7.23509 17.3915C6.89496 17.1379 6.80849 16.8093 6.95837 16.4634C7.12556 16.0829 7.50029 16.031 7.82889 16.2039C8.22667 16.4172 8.61292 16.6767 8.94728 16.9765C10.1522 18.0545 11.2648 19.2247 12.0489 20.6603C12.072 20.7006 12.1239 20.7237 12.3199 20.8678C12.2853 20.4873 12.2853 20.2394 12.2392 20.0031L12.2507 20.003ZM12.1296 27.999C11.8298 28.7658 11.5301 29.4172 11.334 30.0975C11.2764 30.2935 11.4551 30.6337 11.6223 30.8066C12.6196 31.8386 13.6516 32.8359 15.0237 33.3778C16.0268 33.7756 17.0299 34.1676 18.0388 34.5539C18.206 34.6173 18.3962 34.6231 18.6153 34.6634C18.7767 33.8563 18.9035 33.0839 19.0938 32.3344C19.186 31.977 19.0304 31.8386 18.7536 31.7868C17.4854 31.5562 16.2747 31.1353 15.1563 30.5184C14.182 29.9823 13.2077 29.4116 12.5333 28.4719C12.4468 28.3508 12.3373 28.2471 12.124 28.0049L12.1296 27.999ZM17.8485 6.44886C17.4449 7.28479 17.0183 8.11494 16.609 8.95085C16.0614 10.075 15.5252 11.1991 14.989 12.3292C14.9429 12.4272 14.9429 12.5483 14.9141 12.7154C15.6462 12.6636 16.2746 12.4503 16.8396 12.064C18.8631 10.6689 19.7855 8.64537 20.0565 6.28166C20.2063 4.98454 20.1141 3.69319 19.8086 2.41335C19.7336 2.10203 19.6068 1.99827 19.3185 2.11358C18.6325 2.38453 17.9407 2.64972 17.2605 2.93221C16.217 3.36458 15.3407 4.06791 14.5855 4.86925C13.8361 5.67058 13.2826 6.61029 13.0117 7.71717C12.7119 8.95664 12.4237 10.1904 12.7004 11.4702C12.7638 11.77 12.9195 12.0525 13.0693 12.4387C13.2019 12.2716 13.2538 12.2139 13.2884 12.1505C14.2627 10.2077 15.237 8.27067 16.2113 6.32788C16.3266 6.10305 16.4823 5.8955 16.6437 5.70525C16.9204 5.38818 17.2894 5.35934 17.618 5.55536C17.9523 5.75137 18.0042 6.1088 17.837 6.45471L17.8485 6.44886ZM14.7873 23.6055C14.3319 24.3664 13.8707 25.1736 13.3691 25.9518C12.8272 26.7934 13.3115 27.4218 13.8418 27.9407C15.2773 29.3532 17.0587 30.1372 19.0188 30.5465C19.0995 30.5638 19.186 30.5465 19.2955 30.5465C19.3589 29.6933 19.4166 28.8631 19.48 28.033C19.503 27.7159 19.5088 27.3873 19.5837 27.0818C19.6645 26.7705 19.5492 26.6609 19.284 26.5514C18.4423 26.2055 17.5544 25.9345 16.805 25.4503C16.0959 24.9948 15.5367 24.2973 14.7873 23.594L14.7873 23.6055ZM21.5554 38.7668C21.5726 38.4036 21.8321 38.1326 22.2414 38.1557C22.6219 38.173 22.8409 38.392 22.8352 38.7841C22.8236 39.6603 22.7487 40.5366 22.7891 41.4128C22.8352 42.5024 22.9562 43.592 23.0715 44.6757C23.1061 44.9986 23.2906 45.1831 23.6769 45.2004C26.4095 45.333 29.119 45.1197 31.7825 44.5201C33.5927 44.1108 35.3798 43.5746 37.1496 43.0212C38.2046 42.6926 39.2192 42.2257 40.2513 41.8106C40.43 41.7356 40.5856 41.603 40.7413 41.4993C40.551 41.0438 40.3781 40.6403 40.1878 40.1791C39.6632 40.3866 39.1444 40.5711 38.6428 40.7902C36.5213 41.7068 34.3652 42.514 32.1168 43.05C31.9093 43.1019 31.6844 43.1019 31.4653 43.1076C31.1021 43.1249 30.8139 42.975 30.7389 42.6118C30.6582 42.2198 30.8485 41.9546 31.2405 41.8509C32.2897 41.5626 33.362 41.3435 34.3824 40.9746C36.083 40.3635 37.7491 39.6544 39.4211 38.9856C39.7151 38.8703 39.888 38.7435 39.6978 38.3457C39.5133 37.9652 39.4845 37.504 39.3749 37.014C39.0463 37.1754 38.7869 37.3253 38.5102 37.4406C37.1669 37.994 35.818 38.5186 34.4804 39.0836C32.8893 39.7581 31.2175 40.1502 29.5225 40.4038C28.1331 40.6114 26.7265 40.6748 25.3255 40.7958C25.1987 40.8074 25.0661 40.7382 24.9335 40.7209C24.5991 40.669 24.3397 40.5249 24.357 40.1502C24.38 39.7697 24.6337 39.591 25.0026 39.5679C25.5042 39.5391 26.0115 39.5218 26.513 39.4987C28.7902 39.3834 31.0213 39.0202 33.1716 38.2535C34.8089 37.6712 36.4115 36.9909 38.0083 36.2934C39.1094 35.8149 39.1325 35.6708 38.8788 34.5812C38.7462 34.0277 38.6367 33.4743 38.4983 32.8574C37.8815 33.186 37.2704 33.5146 36.6536 33.8374C34.6128 34.9155 32.4566 35.688 30.1737 36.0339C28.6806 36.2587 27.1701 36.374 25.6597 36.4721C25.0602 36.5124 24.4491 36.4029 23.8495 36.3164C23.3825 36.2472 23.0712 36.3741 22.9905 36.8525C22.9156 37.308 22.6273 37.5097 22.218 37.4867C21.7914 37.4579 21.555 37.0197 21.6299 36.5124C21.6645 36.2703 21.728 36.0282 21.7395 35.786C21.7452 35.6765 21.7049 35.5208 21.6242 35.4516C21.1457 35.002 20.6441 34.5696 20.0906 34.0738C19.9465 35.0135 19.7793 35.9301 19.664 36.8525C19.5314 37.8672 19.3931 38.8876 19.3527 39.908C19.3124 40.9572 19.3758 42.0064 19.4161 43.0556C19.4334 43.4765 19.4853 43.8973 19.5718 44.3066C19.6064 44.4565 19.7736 44.6525 19.9177 44.6871C20.4769 44.837 21.0534 44.935 21.7106 45.0676C21.6298 44.2951 21.4972 43.5975 21.4857 42.8999C21.4684 41.5221 21.503 40.1442 21.5607 38.7721L21.5554 38.7668ZM30.0184 48.2444C30.151 48.06 30.4911 47.9274 30.739 47.9331C30.9581 47.9389 31.1829 48.1407 31.3905 48.2848C31.9727 48.6826 32.5435 49.1034 33.12 49.5012C33.4832 49.7491 33.7369 49.7087 34.0309 49.311C34.5036 48.671 35.0397 48.0657 35.6162 47.5181C36.3022 46.8667 37.2016 46.6476 38.1182 46.5208C39.8131 46.2844 41.3178 46.809 42.7014 47.7199C43.3413 48.1407 43.9005 48.6884 44.6039 49.2707C44.9556 48.233 45.2957 47.2414 45.6589 46.1865C44.4367 45.8291 43.2894 45.4716 42.0731 45.4889C41.8367 45.4889 41.5715 45.5581 41.364 45.4774C41.093 45.3736 40.8624 45.1545 40.6088 44.9816C40.7875 44.7452 40.9258 44.3474 41.1507 44.2956C41.6522 44.1745 42.1999 44.1572 42.713 44.2264C43.5835 44.3532 44.4368 44.5665 45.2899 44.7683C45.901 44.9124 46.0048 44.8548 46.074 44.2264C46.1086 43.9093 46.1028 43.5634 46.2412 43.304C46.3565 43.0907 46.6505 42.8947 46.8868 42.8658C47.0483 42.8485 47.3365 43.0964 47.4057 43.2867C47.5095 43.5749 47.5613 43.9324 47.4864 44.2264C47.1347 45.6503 46.7312 47.057 46.3507 48.4694C46.3334 48.5271 46.3507 48.5962 46.3507 48.7231C46.8177 48.4175 47.2616 48.1754 47.6421 47.8583C48.3512 47.2703 49.0141 46.6304 49.7059 46.0193C50.0056 45.7541 50.0806 45.4832 49.948 45.0738C49.7289 44.4051 49.6079 43.7018 49.4176 43.0215C49.3773 42.8659 49.2389 42.6584 49.1121 42.6238C48.0917 42.3759 47.0598 42.1972 46.0451 41.932C44.8633 41.6264 43.8948 42.151 42.8917 42.618C41.7387 43.1599 40.5972 43.7422 39.4154 44.2033C37.9453 44.7741 36.4407 45.2583 34.9302 45.7195C34.4344 45.8693 34.0481 46.0192 33.8752 46.5554C33.806 46.7629 33.5696 46.9128 33.414 47.0858C33.0854 47.4605 32.6299 47.5989 32.2321 47.3683C32.0073 47.2357 31.9497 46.8148 31.7882 46.4574C30.739 46.6015 29.5572 46.688 28.4273 46.9589C28.0122 47.0569 27.6548 47.5643 27.355 47.9505C26.3058 49.3226 25.2912 50.7177 24.2766 52.1186C24.046 52.4299 23.8557 52.77 23.6597 53.1044C23.5156 53.3465 23.5156 53.4676 23.873 53.5195C24.6917 53.6463 25.5046 53.8193 26.3462 53.6463C26.4096 52.7643 26.5999 51.9457 27.3551 51.4038C28.1564 50.833 29.0789 50.712 29.9666 51.0463C30.7333 51.3346 31.4194 51.8131 32.1976 52.2397C32.4225 51.8419 32.6992 51.3692 32.9874 50.8503C32.6877 50.7062 32.3879 50.614 32.1457 50.441C31.4712 49.9568 30.8025 49.4552 30.1799 48.9132C30.0243 48.7749 29.909 48.3598 30.0012 48.2272L30.0184 48.2444ZM48.611 31.1395C48.7724 30.6495 49.0376 30.2228 49.5161 30.0557C50.1733 29.8251 50.2482 29.3754 50.1387 28.7643C48.7839 28.9027 47.4176 30.194 47.3485 31.7447C47.2793 33.2321 47.6598 34.5754 48.2594 35.8898C48.2997 35.9763 48.3689 36.0512 48.4611 36.1838C48.6399 35.9301 48.8013 35.7168 48.9454 35.4978C49.2106 35.1 49.372 34.7887 49.0376 34.2468C48.4554 33.3186 48.2536 32.2464 48.611 31.1395ZM50.1906 33.4225C50.548 32.7076 50.1906 32.0677 50.2079 31.3471C49.5853 31.7795 49.6083 32.65 50.1906 33.4225ZM47.2332 36.7604C46.2704 35.1 45.8899 33.3129 46.0686 31.3932C46.2128 29.7963 47.5502 28.2225 49.1645 27.7901C49.1991 27.7843 49.2279 27.767 49.2625 27.7612C50.1791 27.6459 50.5308 27.1098 50.3636 26.1239C49.8736 26.2738 49.3374 26.4007 48.8358 26.6024C47.9019 26.9772 47.0545 27.5133 46.3511 28.2225C45.9418 28.6318 45.5786 29.1218 45.3076 29.6407C44.7773 30.6553 44.466 31.7507 44.5063 32.9153C44.5755 34.8926 44.9675 36.8008 45.6189 38.6629C45.6478 38.7378 45.6997 38.807 45.8092 38.9915C46.305 38.4554 46.7374 37.9711 47.1928 37.5157C47.4522 37.2563 47.3946 37.0429 47.2274 36.7605L47.2332 36.7604ZM40.5458 25.9338C40.6554 25.5533 40.5631 24.9768 40.3325 24.6539C39.9002 24.0486 39.3294 23.5298 38.7645 23.0281C38.09 22.4228 37.3982 21.8348 36.6545 21.3159C35.9915 20.8547 35.2593 20.4742 34.5329 20.0995C34.0775 19.8631 33.5817 19.6959 33.1032 19.4941C31.7196 18.9061 30.3245 19.1194 28.9639 19.5345C27.8974 19.8631 26.8424 20.2609 25.8508 20.7682C25.0956 21.1545 24.4384 21.7482 23.7523 22.2671C22.4264 23.2644 21.5558 24.6076 21.1176 26.1757C20.7429 27.5189 20.7141 28.9198 20.8409 30.3092C20.9043 30.9952 20.9851 31.687 21.1292 32.3615C21.3771 33.5721 22.2649 34.2236 23.366 34.5465C24.2134 34.7944 25.107 34.8808 25.5912 34.9673C28.4104 35.0365 30.7451 34.6445 33.0165 33.8604C34.9938 33.1802 36.9136 32.3673 38.4759 30.9318C38.8045 30.6262 39.0351 30.1708 39.2023 29.7442C39.6923 28.4874 40.1708 27.2249 40.5513 25.9336L40.5458 25.9338ZM16.7243 21.5178C15.9288 22.0654 15.727 22.6708 16.4707 23.4318C17.4277 24.4118 18.5172 25.0633 19.8836 25.4898C20.0911 25.0113 20.2929 24.5444 20.5119 24.0313C18.9901 23.5413 17.7102 22.7457 16.7243 21.5178ZM20.437 18.0242C20.068 18.3239 20.0449 18.6295 20.4254 18.912C20.9039 19.2751 21.4285 19.5749 21.959 19.8632C22.2991 20.0477 22.6796 20.1745 22.5066 20.676C22.3741 21.0565 21.8437 21.2064 21.4171 20.9931C20.535 20.5492 19.6703 20.0765 19.0188 19.1598C18.6499 19.5173 18.2924 19.8401 17.9638 20.186C17.7448 20.4224 17.7217 20.6818 17.9465 20.9585C18.6902 21.8867 19.6761 22.4343 20.7945 22.7803C21.0424 22.8552 21.2672 22.8322 21.4632 22.59C22.4605 21.3736 23.6712 20.4166 25.0663 19.6903C25.245 19.5981 25.4064 19.477 25.6832 19.3098C24.0401 18.9466 22.5873 18.4854 21.4631 17.3093C21.1 17.5572 20.7483 17.7705 20.437 18.0242ZM25.8329 15.0552C27.107 15.8277 29.4188 15.3204 29.5513 14.1213C28.283 14.4384 27.0551 14.7497 25.8329 15.0552ZM31.5978 13.833C31.4364 13.8619 31.2231 14.0579 31.177 14.2135C30.808 15.4645 29.949 16.1218 28.721 16.4273C27.2337 16.7962 25.8271 16.6521 24.501 15.8738C24.3857 15.8047 24.1955 15.7643 24.0917 15.8162C23.6017 16.0353 23.1347 16.2889 22.6562 16.5311C22.6447 16.6002 22.6274 16.6694 22.6159 16.7386C23.1347 17.0326 23.619 17.4477 24.1724 17.5976C25.2909 17.8973 26.4439 18.1914 27.5968 18.2433C28.6518 18.2894 29.7414 18.0415 30.6177 17.3324C31.2173 16.8539 31.7534 16.2947 32.3703 15.845C33.0967 15.3204 33.8807 14.865 34.6475 14.398C35.0395 14.1616 35.4604 13.9829 36.0023 13.712C34.4457 13.5736 33.0161 13.5736 31.5978 13.8388L31.5978 13.833ZM45.8143 17.9319C45.3185 16.8365 44.4999 15.9833 43.3411 15.7412C42.7357 15.6143 42.0209 16.0179 41.3578 16.1735C40.7641 16.3119 40.6545 16.7616 40.6199 17.4995C40.7814 17.7186 40.9831 18.1855 41.3348 18.4392C42.5397 19.3097 43.8772 19.6325 45.3241 19.0791C45.9122 18.8543 46.0736 18.4968 45.8141 17.9203L45.8143 17.9319ZM49.5499 19.3501C49.1694 19.0042 48.7601 18.6929 48.345 18.3816C48.0568 18.1625 47.7397 17.9665 47.3996 17.7416C47.3592 18.1337 47.3765 18.445 47.2958 18.7217C46.9557 19.8343 46.0448 20.284 45.0244 20.4973C43.4505 20.8316 41.9401 20.5319 40.6256 19.6325C39.6686 18.9753 39.1325 18.0067 39.2593 16.7904C38.9134 16.8941 38.6021 17.0094 38.2793 17.0901C37.8873 17.1881 37.599 17.0152 37.4895 16.652C37.3742 16.2715 37.6163 16.0467 37.9564 15.9256C38.9595 15.5624 39.9569 15.1992 40.9601 14.836C40.9658 14.7726 40.9716 14.715 40.9773 14.6515C39.9685 14.4613 38.9596 14.1327 37.9507 14.1385C37.3454 14.1442 36.7343 14.6515 36.1462 14.9744C35.3795 15.3952 34.6184 15.8334 33.8921 16.3176C33.2984 16.7154 32.7564 17.1881 32.1799 17.6378C33.1542 18.4737 34.3649 18.566 35.27 17.5975C35.4256 17.4303 35.5582 17.2343 35.6908 17.044C36.0195 16.5828 36.4403 16.456 36.8208 16.7154C37.207 16.9806 37.2647 17.413 36.8784 17.8684C36.5844 18.2085 36.1924 18.468 35.8407 18.762C35.7773 18.8139 35.7139 18.86 35.5582 18.9811C35.956 19.2578 36.3135 19.4941 36.6593 19.7478C37.7432 20.5491 38.8212 21.3621 39.905 22.1633C40.4123 22.538 40.8966 22.9819 41.4616 23.2471C42.1476 23.5699 42.9028 23.4316 43.5946 23.1664C45.5374 22.4112 47.4744 21.6329 49.4 20.8316C49.7228 20.699 49.9822 20.3992 50.2705 20.1744C50.0341 19.8919 49.8208 19.5806 49.5556 19.3327L49.5499 19.3501ZM50.2705 21.9385C48.126 22.8436 45.9756 23.7488 43.831 24.6538C43.7849 24.6711 43.7388 24.7057 43.6927 24.7114C42.5627 24.9478 42.2341 25.8817 41.8824 26.7927C41.2598 28.4069 40.6372 30.0268 40.0549 31.6584C39.9396 31.987 39.928 32.3963 39.9972 32.7479C40.3316 34.489 40.6717 36.23 41.0926 37.9479C41.3578 39.026 41.7613 40.0694 42.1591 41.2858C42.9835 40.8131 43.6869 40.4211 44.3729 39.9945C44.4593 39.9426 44.4882 39.7004 44.4593 39.5678C44.1307 38.2765 43.7329 37.0024 43.462 35.7053C43.2199 34.5408 43.07 33.359 43.2083 32.1541C43.4332 30.2228 44.2114 28.5453 45.6066 27.2077C46.16 26.6831 46.8518 26.268 47.5436 25.9336C48.4314 25.507 49.3769 25.19 50.3165 24.8787C50.6682 24.7634 50.8181 24.5904 50.8585 24.2503C50.8815 24.0254 51.4926 21.9788 51.6713 21.3216C51.1237 21.5637 50.7028 21.7598 50.2762 21.9385L50.2705 21.9385ZM52.542 40.847C52.248 39.0482 51.8444 37.2842 51.1988 35.5086C49.7056 37.3649 48.4258 39.3539 46.2293 40.6163C47.3535 40.8815 48.3336 41.1121 49.4 41.3658C49.4692 40.9737 49.5557 40.6048 49.596 40.23C49.6537 39.6766 49.6537 39.1174 49.7113 38.5582C49.7517 38.172 49.9534 37.8664 50.3916 37.8722C50.7951 37.878 51.0373 38.1259 51.02 38.5236C50.9854 39.4518 50.9566 40.3857 50.8413 41.3023C50.7144 42.3458 50.945 43.3316 51.1756 44.3175C51.2217 44.3405 51.2736 44.3578 51.3197 44.3809C51.6022 43.9255 51.879 43.47 52.1614 43.0146C52.5765 42.3401 52.6688 41.6196 52.542 40.847ZM62.7979 57.0576C63.1957 57.6571 63.6684 58.1991 64.0893 58.7814C65.1327 60.2053 66.551 61.0181 68.2803 61.2603C68.9318 61.3526 69.6005 61.3583 70.2577 61.3064C71.8257 61.1738 72.8519 60.286 73.4746 58.8679C74.1318 57.3633 74.0568 52.6648 72.7597 51.1601C72.7136 51.0621 72.4887 50.9698 72.3677 50.9929C70.6036 51.3388 68.8338 51.6789 67.0755 52.0882C66.6431 52.192 66.2568 52.5148 65.8533 52.7397C64.4639 53.5064 63.0803 54.2675 61.616 55.0745C61.9965 55.7201 62.3655 56.4119 62.8036 57.0692L62.7979 57.0576ZM51.9021 53.0451C52.1558 53.4947 52.346 53.9848 52.5305 54.469C52.7668 55.0916 52.8764 55.2069 53.4183 55.0282C54.2369 54.763 55.044 54.446 55.8107 54.1692C55.3899 53.5236 54.9921 52.9644 54.6577 52.3705C54.4041 51.9151 54.5309 51.5057 54.8941 51.304C55.2631 51.1022 55.6147 51.229 55.9088 51.7018C56.2719 52.284 56.6697 52.8375 57.2924 53.1603C57.4826 53.2583 57.7709 53.3159 57.9553 53.241C58.8143 52.9182 59.6559 52.5377 60.4803 52.1918C59.852 51.7306 59.2409 51.327 58.6875 50.8543C58.4281 50.6352 58.1917 50.3066 58.1168 49.9895C58.0591 49.7589 58.209 49.3957 58.3877 49.2113C58.6125 48.9807 58.97 49.0556 59.1545 49.3208C59.754 50.2086 60.6476 50.6237 61.5987 50.9811C62.1291 51.1829 65.6112 49.7474 65.8648 49.3553C65.1153 49.0613 64.3947 48.7731 63.6798 48.4848C63.5242 48.4214 63.357 48.3638 63.2186 48.2715C62.8266 48.0294 62.6536 47.5855 62.8093 47.2857C62.9996 46.9225 63.3916 46.8015 63.8758 46.9859C64.5734 47.2569 65.2594 47.5452 65.9571 47.8161C67.9863 48.6001 70.0099 48.4099 72.0276 47.77C73.3305 47.3607 74.6564 46.9802 75.919 46.4671C78.0059 45.6081 80.0236 44.5935 81.8626 43.2617C83.1597 42.322 88.2791 37.7216 89.2188 34.9544C89.6339 33.738 90.1354 32.5331 90.4006 31.2821C90.6946 29.8754 90.7465 28.4284 90.6542 26.9641C90.5217 24.952 90.0835 23.0265 89.1899 21.2452C88.6999 20.2651 88.0081 19.3716 87.3279 18.501C86.7341 17.7458 86.0596 17.0425 85.3678 16.3737C84.1629 15.215 82.7331 14.3905 81.2055 13.7391C78.692 12.6725 76.0516 12.2345 73.3248 12.1883C69.9754 12.1306 66.8623 13.0357 63.7204 14.1483C60.59 15.2552 55.0901 19.579 54.3579 22.2827C53.718 23.9142 53.2453 25.5976 53.0954 27.3559C52.9282 29.2929 52.9109 31.2357 53.2626 33.1555C53.6373 35.1963 54.2945 37.1391 55.4936 38.8686C55.9433 39.52 56.4218 40.16 56.8023 40.8459C56.9176 41.0535 56.8426 41.457 56.71 41.6876C56.5256 42.0105 56.1566 41.9701 55.8395 41.8375C55.2861 41.6011 55.044 41.0765 54.7499 40.6096C54.5482 40.2809 54.3637 39.9466 54.1734 39.6122C54.1389 39.6237 54.1043 39.6295 54.0754 39.641C54.1043 39.9581 54.1043 40.2867 54.1677 40.598C54.3925 41.7395 54.6404 44.6336 54.3233 44.5413C53.7872 45.9019 52.813 46.9683 51.8329 48.0177C51.3659 48.5192 50.8355 48.9689 50.2878 49.384C49.9996 49.603 50.0399 49.7817 50.184 50.0239C50.7663 51.0212 51.3716 52.0129 51.9308 53.0275L51.9021 53.0451ZM36.5386 71.4119C37.1843 72.9857 38.4237 73.8966 40.061 74.2886C41.9635 74.7383 43.7276 74.2828 45.3532 73.3143C51.6716 71.1005 50.7608 58.153 49.7 55.9156C49.3426 54.7972 48.1262 52.5605 47.7342 51.7821C47.5555 51.4362 47.3767 51.3382 46.9847 51.5573C44.8574 52.7449 42.5917 53.6096 40.257 54.2842C39.3461 54.5494 38.441 54.8088 37.5186 55.0336C37.1611 55.1201 37.0516 55.2815 37.0919 55.639C37.3398 57.7835 37.1092 59.9108 36.7806 62.0323C36.4924 63.9001 36.2041 65.7679 36.0254 67.6474C35.9044 68.9215 36.0485 70.2186 36.5385 71.4177L36.5386 71.4119ZM40.7759 51.5751C40.2513 50.8199 39.6632 50.549 39.1386 50.7392C38.4295 50.9986 37.9971 51.6904 38.0548 52.584C38.9657 52.2496 39.8476 51.921 40.7759 51.5809L40.7759 51.5751ZM36.3254 52.8204C36.4637 52.78 36.6021 52.4802 36.6194 52.29C36.752 50.4797 38.1702 49.0846 40.0495 49.5055C40.5799 49.6208 41.1103 49.961 41.5311 50.3299C42.1422 50.8661 42.3151 50.9583 42.9839 50.5374C43.1395 50.4394 43.2837 50.3241 43.4912 50.1685C43.0473 49.7476 42.6611 49.2691 42.171 48.9463C41.3236 48.3871 40.4704 47.8164 39.3808 47.7357C37.8647 47.6146 36.6309 48.0009 35.7719 49.3325C34.8957 50.6931 33.9964 52.042 33.1027 53.3911C33.1489 53.4545 33.195 53.5179 33.2411 53.5871C34.273 53.3392 35.3049 53.1144 36.3253 52.8261L36.3254 52.8204ZM30.3413 58.6372C30.3989 59.0062 30.5488 59.2714 31.0388 59.2714C31.8287 59.2714 32.6184 59.3752 33.4141 59.4328C33.7023 59.4559 33.8234 59.3291 33.783 59.0408C33.6447 58.0377 33.5121 57.0403 33.3795 56.0776H30.0069C30.1222 56.9827 30.2202 57.8129 30.347 58.6373L30.3413 58.6372ZM31.0215 53.6793C31.1311 53.6793 31.2694 53.5755 31.3329 53.4775C31.3617 53.4314 31.2752 53.2469 31.1945 53.2008C30.6526 52.8607 30.128 52.4802 29.5457 52.2265C28.8885 51.944 28.0468 52.4168 27.8334 53.0913C27.6662 53.6217 27.8161 53.8119 28.3811 53.7889C28.4618 53.7889 28.5483 53.7716 28.629 53.7658V53.6851C29.4246 53.6851 30.2259 53.6908 31.0215 53.6736L31.0215 53.6793ZM25.7639 57.9281C25.8331 58.2913 26.0002 58.4988 26.4153 58.568C27.2397 58.7064 28.0526 58.9254 28.9461 59.1272C28.7904 58.0434 28.6521 57.1267 28.508 56.1295C27.5279 56.0661 26.496 55.9969 25.3891 55.922C25.5217 56.6426 25.637 57.2825 25.758 57.9225L25.7639 57.9281ZM22.426 57.49C23.0255 57.7033 23.6309 57.9051 24.3342 58.1414C24.1901 57.3286 24.0863 56.6541 23.9307 55.9854C23.9019 55.8585 23.6943 55.7202 23.5502 55.6914C23.2274 55.6279 22.8815 55.6798 22.5644 55.5991C22.1032 55.4838 21.936 55.7029 21.7861 56.0834C21.3826 57.1153 21.371 57.1095 22.426 57.49ZM21.3479 53.1374C21.7688 53.247 21.9878 53.051 22.2184 52.7166C21.8783 52.4456 21.5382 52.192 21.2268 51.9152C20.4197 51.1946 19.6357 50.4509 18.8286 49.7245C18.4539 49.3844 18.0676 49.0673 17.6814 48.7445C17.5661 48.6465 17.3874 48.5773 17.3355 48.4562C17.249 48.2429 17.1395 47.9258 17.2317 47.7932C17.3528 47.6261 17.716 47.4704 17.8947 47.5338C18.3271 47.6952 18.7537 47.9316 19.1053 48.2314C19.8029 48.8137 20.4486 49.4651 21.1288 50.0762C21.7053 50.595 22.2934 51.0908 22.9564 51.6673C23.383 51.0447 23.7692 50.4855 24.1555 49.9262C23.4983 49.3728 22.8757 48.8309 22.2357 48.3179C21.8149 47.9777 21.6823 47.6491 21.9014 47.3321C22.1377 46.9919 22.6047 46.9804 23.0198 47.3148C23.5732 47.7529 24.1036 48.2199 24.6743 48.6349C24.7839 48.7157 25.1009 48.7099 25.1816 48.6177C25.5852 48.1449 25.9484 47.6376 26.4038 47.0381C26.0118 47.0035 25.7351 46.9689 25.4584 46.9574C22.7315 46.8593 20.0162 46.6576 17.4105 45.7928C15.0987 45.0203 12.7985 44.1845 10.7 42.9161C9.14342 41.9764 7.99049 40.6332 6.96434 39.0708C5.88629 39.9125 5.29251 41.0251 4.97535 42.3857C5.63256 42.3511 6.06494 42.7086 6.3359 43.1698C6.53768 43.5099 6.61262 43.9711 6.59533 44.3689C6.57803 44.6687 6.38202 45.0203 6.15718 45.2278C5.82857 45.5334 5.81704 45.7813 6.10529 46.0753C6.61261 46.5999 7.1257 47.1188 7.63883 47.6434C7.70225 47.6088 7.76567 47.5742 7.82909 47.5396C7.80027 47.3032 7.78297 47.0669 7.74838 46.8363C7.65038 46.133 7.55812 45.4296 7.45435 44.7263C7.2987 43.6252 7.04505 42.5528 6.40513 41.6132C6.09381 41.152 6.11688 40.8118 6.43972 40.587C6.77408 40.3506 7.32752 40.4659 7.5293 40.9098C7.89826 41.7342 8.19227 42.5932 8.50934 43.4406C8.56122 43.579 8.59582 43.7288 8.64194 43.873C9.29915 43.7692 9.92753 43.6308 10.5617 43.5962C10.9653 43.5732 11.3919 43.6654 11.7724 43.8038C11.9453 43.8672 12.1413 44.1612 12.1413 44.3572C12.1471 44.6455 11.9049 44.7896 11.5763 44.8126C10.8557 44.8588 10.1351 44.9452 9.41454 45.0202C9.03981 45.0605 8.82075 45.1989 8.92452 45.6486C9.03982 46.1674 9.08594 46.7035 9.17241 47.3089C10.0256 46.8419 10.7982 46.4268 11.5591 46.0002C12.9254 45.2393 14.3666 45.0317 15.8771 45.4641C16.1769 45.5506 16.4652 45.7293 16.7015 45.9368C16.8168 46.0348 16.8918 46.3577 16.8226 46.4557C16.69 46.6286 16.4363 46.7958 16.2288 46.8131C15.9406 46.8304 15.635 46.7266 15.3525 46.6344C14.0208 46.2078 12.8736 46.6747 11.7494 47.332C11.0115 47.7643 10.2448 48.1506 9.48961 48.5599C9.43196 48.5887 9.38008 48.6291 9.20713 48.7328C9.8874 49.1306 10.5043 49.4708 11.1039 49.857C11.5766 50.1568 11.8937 50.1049 12.2453 49.6379C13.0582 48.5714 15.1336 48.4619 16.1597 49.0326C17.3992 49.7129 18.2985 50.6872 18.6847 52.0765C18.7712 52.3936 18.9038 52.653 19.2382 52.7337C19.9415 52.8952 20.6506 53.0105 21.3482 53.1892L21.3479 53.1374ZM13.1501 50.7449C14.4991 51.3503 15.8193 51.8807 17.3758 52.1862C16.7763 51.062 16.2171 50.1281 14.9719 49.9379C14.2397 49.8284 13.5767 50.0993 13.1501 50.7392V50.7449ZM5.4192 62.6727C6.27818 64.7365 8.23834 65.78 10.5904 65.3764C11.7146 65.1862 12.7581 64.7307 13.6228 63.9928C14.4875 63.2491 17.9926 59.4385 19.2206 55.034C14.8911 54.0136 10.9478 52.2553 7.07376 50.0243C6.8201 50.5662 6.52032 51.0793 6.32431 51.6327C5.89771 52.826 5.44227 54.0251 5.13097 55.253C4.50835 57.7435 4.41035 60.2455 5.41922 62.6783L5.4192 62.6727ZM5.37308 38.3789C5.60945 38.1022 5.83429 37.8024 6.09948 37.5372C6.54915 37.0818 6.50879 36.5341 6.24361 36.0844C5.73052 35.2197 5.11942 34.4184 4.53724 33.5997C4.23746 33.1789 3.90308 32.7811 3.5053 32.3948C2.79044 35.0468 2.85962 37.6467 3.79932 40.2122C3.8512 40.2237 3.90886 40.241 3.96075 40.2525C4.07605 40.0508 4.19135 39.8548 4.30088 39.653C3.86851 39.0015 3.82815 38.6729 4.13945 38.3328C4.41617 38.0273 4.82548 38.033 5.37892 38.3789L5.37308 38.3789Z" fill="white"/>
<path d="M66.3041 24.5683C68.0047 24.1474 69.6882 25.3119 70.4664 26.782C72.0979 29.6876 70.1608 33.4463 66.5865 32.3914C64.7994 31.8437 63.6868 29.9874 63.7156 28.1656V28.1368C63.6579 26.4477 64.5919 24.9257 66.2983 24.5625L66.3041 24.5683Z" fill="white"/>
<path d="M76.6232 27.635C76.8999 27.8253 77.0441 28.2576 77.1594 28.6093C77.315 29.082 77.3611 29.5951 77.4995 30.0794C77.5398 30.2293 77.7474 30.4656 77.8396 30.4483C78.0068 30.4195 78.1913 30.2523 78.2893 30.0967C78.4623 29.8315 78.5775 29.5202 78.7159 29.2319C79.1137 28.4075 79.9784 28.2749 80.5665 28.9667C80.7394 29.1743 80.849 29.4337 81.0104 29.647C81.2179 29.9122 81.4543 30.1543 81.6791 30.408C81.7483 30.3849 81.8117 30.3618 81.8809 30.3388C81.9501 29.5605 82.025 28.7822 82.0826 28.004C82.123 27.4794 82.3709 27.1796 82.8263 27.1393C83.3279 27.0931 83.8064 27.3872 83.8179 27.8772C83.8352 28.7996 83.8986 29.7565 83.6853 30.6329C83.4259 31.6878 82.5093 32.4949 81.3044 32.1087C80.7394 31.9242 80.2609 31.4745 79.696 31.1056C79.7018 31.0941 79.6614 31.1402 79.6326 31.2036C79.0042 32.4661 77.3611 32.7486 76.358 31.7167C75.4183 30.7482 75.2569 29.5202 75.3549 28.275C75.4125 27.5775 76.087 27.2662 76.6289 27.6409L76.6232 27.635Z" fill="white"/>
<path d="M85.6627 20.8668C86.9887 20.5093 88.1012 21.7085 88.5741 22.8326C88.8969 23.5993 89.1333 24.4526 89.1045 25.2885V25.3174C89.0757 27.3697 86.9138 28.54 85.5186 26.7932C84.4867 25.5825 83.6393 21.4548 85.657 20.8726L85.6627 20.8668Z" fill="white"/>
<path d="M33.1895 31.3601C31.0737 32.3055 28.8484 32.9627 26.4675 32.5477C25.3087 32.3459 24.2998 31.8328 23.66 30.8124C23.1354 29.9822 22.8875 29.0541 22.9163 28.0567C22.9451 27.0305 23.1988 26.0735 23.6946 25.157C24.4094 23.8425 25.4183 22.8682 26.75 22.2341C28.0471 21.6115 29.4077 21.4097 30.8488 21.6287C32.6821 21.9055 34.3655 22.4762 35.6741 23.8482C36.7752 25.0012 37.0519 26.3733 36.5158 27.8838C35.9277 29.5211 34.7229 30.6798 33.1951 31.3601L33.1895 31.3601ZM34.4174 24.4883C33.1318 23.3237 31.5407 22.9375 29.8515 22.828C28.2546 22.7242 26.9113 23.3295 25.8449 24.4363C24.6803 25.647 23.977 27.1343 24.3287 28.8523C24.6458 30.4089 25.3376 31.1006 27.142 31.3658C27.2919 31.3889 27.4475 31.3889 27.5974 31.3947C27.6032 31.4408 27.6147 31.4869 27.6205 31.5272C28.4564 31.3601 29.3096 31.239 30.1224 31.0084C30.9699 30.7663 31.8231 30.4838 32.6072 30.086C34.0138 29.3827 35.0804 28.3565 35.2994 26.6846C35.4205 25.7738 35.0342 25.0531 34.4058 24.4824L34.4174 24.4883Z" fill="white"/>
<path d="M31.6914 27.4963C30.6249 28.1881 29.4316 28.6032 28.1978 28.8223C27.5522 28.9376 26.8834 28.8568 26.4625 28.1708C26.0878 27.5597 26.1743 26.9486 26.4395 26.3663C27.2005 24.7002 28.9357 23.945 30.746 24.5215C31.6972 24.827 32.3486 25.5246 32.3775 26.2798C32.3948 26.8217 32.1238 27.2196 31.6914 27.4963ZM30.6307 25.8532C30.2617 25.6745 29.8351 25.6111 29.616 25.5535C28.6072 25.5881 27.8577 26.1761 27.6098 26.9717C27.4541 27.4559 27.679 27.7384 28.1632 27.577C29.028 27.2887 29.8755 26.9428 30.7056 26.5739C31.0746 26.4124 31.0458 26.055 30.6307 25.8532Z" fill="white"/>
</svg>
