<svg width="51" height="51" viewBox="0 0 51 51" fill="none" xmlns="http://www.w3.org/2000/svg">
<path fill-rule="evenodd" clip-rule="evenodd" d="M25.2168 0.371552C11.2993 0.371552 0 11.6709 0 25.5883C0 39.5057 11.2993 50.8051 25.2168 50.8051C39.1342 50.8051 50.4335 39.5057 50.4335 25.5883C50.4335 11.6709 39.1342 0.371552 25.2168 0.371552ZM25.2168 4.8338C36.6719 4.8338 45.9718 14.1332 45.9718 25.5883C45.9718 37.0434 36.6719 46.3428 25.2168 46.3428C13.7622 46.3428 4.46225 37.0434 4.46225 25.5883C4.46225 14.1332 13.7622 4.8338 25.2168 4.8338Z" fill="black"/>
<path fill-rule="evenodd" clip-rule="evenodd" d="M21.5323 24.3336C21.0969 29.3349 19.9498 34.1855 18.1617 38.9016C17.7251 40.0532 18.3057 41.342 19.4567 41.7786C20.6083 42.2151 21.8971 41.6351 22.3336 40.4835C23.5995 37.1448 24.5673 33.7439 25.2168 30.2764C25.8662 33.7439 26.834 37.1448 28.0999 40.4835C28.5364 41.6351 29.8253 42.2151 30.9768 41.7786C32.1284 41.342 32.7084 40.0532 32.2719 38.9016C30.4848 34.1883 29.3383 29.34 28.9023 24.3431C31.5747 24.212 34.2483 23.9318 36.9218 23.4975C38.1373 23.2997 38.9638 22.1526 38.766 20.9372C38.5688 19.7223 37.4217 18.8958 36.2062 19.093C28.8754 20.2844 21.5452 20.2373 14.2144 19.0908C12.9978 18.9008 11.8558 19.7341 11.6653 20.9506C11.4753 22.1672 12.3086 23.3093 13.5252 23.4992C16.1936 23.9167 18.8627 24.1969 21.5323 24.3336Z" fill="black"/>
<path d="M25.2167 18.1129C27.4407 18.1129 29.2436 16.3101 29.2436 14.0861C29.2436 11.8621 27.4407 10.0593 25.2167 10.0593C22.9928 10.0593 21.1899 11.8621 21.1899 14.0861C21.1899 16.3101 22.9928 18.1129 25.2167 18.1129Z" fill="black"/>
</svg>
