<svg width="28" height="26" viewBox="0 0 28 26" fill="none" xmlns="http://www.w3.org/2000/svg">
<path d="M27 26H1C0.734784 26 0.48043 25.8946 0.292893 25.7071C0.105357 25.5196 0 25.2652 0 25V1C0 0.734784 0.105357 0.48043 0.292893 0.292893C0.48043 0.105357 0.734784 0 1 0H27C27.2652 0 27.5196 0.105357 27.7071 0.292893C27.8946 0.48043 28 0.734784 28 1V25C28 25.2652 27.8946 25.5196 27.7071 25.7071C27.5196 25.8946 27.2652 26 27 26ZM2 24H26V2H2V24Z" fill="black"/>
<path d="M27 8H1C0.734784 8 0.48043 7.89464 0.292893 7.70711C0.105357 7.51957 0 7.26522 0 7C0 6.73478 0.105357 6.48043 0.292893 6.29289C0.48043 6.10536 0.734784 6 1 6H27C27.2652 6 27.5196 6.10536 27.7071 6.29289C27.8946 6.48043 28 6.73478 28 7C28 7.26522 27.8946 7.51957 27.7071 7.70711C27.5196 7.89464 27.2652 8 27 8Z" fill="black"/>
<path d="M18 5C17.8353 5.00167 17.6728 4.96224 17.5272 4.88527C17.3816 4.8083 17.2575 4.69623 17.1662 4.5592C17.0748 4.42217 17.0191 4.26452 17.0041 4.10052C16.989 3.93652 17.0151 3.77136 17.08 3.62C17.1283 3.49761 17.1996 3.3856 17.29 3.29C17.4834 3.11156 17.7369 3.01248 18 3.01248C18.2631 3.01248 18.5166 3.11156 18.71 3.29C18.7983 3.38726 18.8693 3.49886 18.92 3.62C18.9849 3.77136 19.011 3.93652 18.9959 4.10052C18.9809 4.26452 18.9252 4.42217 18.8338 4.5592C18.7425 4.69623 18.6184 4.8083 18.4728 4.88527C18.3272 4.96224 18.1647 5.00167 18 5Z" fill="black"/>
<path d="M21 5.00001C20.8353 5.00169 20.6728 4.96226 20.5272 4.88529C20.3816 4.80832 20.2575 4.69625 20.1662 4.55922C20.0748 4.42219 20.0191 4.26454 20.0041 4.10054C19.989 3.93654 20.0151 3.77138 20.08 3.62001C20.1283 3.49763 20.1996 3.38562 20.29 3.29001C20.3873 3.20176 20.4989 3.13074 20.62 3.08001C20.8025 3.00565 21.0027 2.98591 21.1962 3.02319C21.3897 3.06047 21.5682 3.15317 21.71 3.29001C21.7983 3.38728 21.8693 3.49888 21.92 3.62001C21.9979 3.80188 22.0196 4.00293 21.9821 4.19722C21.9447 4.3915 21.8499 4.57012 21.71 4.71001C21.6127 4.79827 21.5011 4.86929 21.38 4.92001C21.2598 4.97126 21.1307 4.99843 21 5.00001Z" fill="black"/>
<path d="M24 5C23.8353 5.00167 23.6728 4.96224 23.5272 4.88527C23.3816 4.8083 23.2575 4.69623 23.1662 4.5592C23.0748 4.42217 23.0191 4.26452 23.0041 4.10052C22.989 3.93652 23.0151 3.77136 23.08 3.62C23.1283 3.49761 23.1996 3.3856 23.29 3.29C23.4834 3.11156 23.7369 3.01248 24 3.01248C24.2631 3.01248 24.5166 3.11156 24.71 3.29C24.8004 3.3856 24.8717 3.49761 24.92 3.62C24.9761 3.73865 25.0035 3.86881 25 4C25.0013 4.13168 24.9763 4.2623 24.9265 4.38422C24.8768 4.50613 24.8031 4.61689 24.71 4.71C24.6127 4.79825 24.5011 4.86927 24.38 4.92C24.2598 4.97124 24.1307 4.99842 24 5Z" fill="black"/>
<path d="M13.273 18.546C12.4279 18.5462 11.6017 18.2958 10.8989 17.8264C10.1961 17.3571 9.64824 16.6898 9.32465 15.9091C9.00105 15.1284 8.91623 14.2693 9.08091 13.4404C9.24559 12.6114 9.65238 11.85 10.2498 11.2522C10.8473 10.6545 11.6086 10.2474 12.4374 10.0823C13.2662 9.91723 14.1254 10.0017 14.9063 10.3249C15.6871 10.6481 16.3546 11.1956 16.8243 11.8982C17.294 12.6008 17.5448 13.4269 17.545 14.272C17.5439 15.4049 17.0936 16.4911 16.2927 17.2923C15.4918 18.0935 14.4059 18.5444 13.273 18.546ZM13.273 12C12.8234 11.9998 12.3838 12.133 12.0098 12.3827C11.6359 12.6323 11.3444 12.9873 11.1722 13.4027C11.0001 13.8181 10.955 14.2752 11.0426 14.7162C11.1303 15.1572 11.3468 15.5623 11.6647 15.8803C11.9827 16.1982 12.3878 16.4147 12.8288 16.5024C13.2698 16.59 13.7269 16.545 14.1423 16.3728C14.5577 16.2006 14.9127 15.9091 15.1624 15.5352C15.412 15.1612 15.5452 14.7216 15.545 14.272C15.5439 13.6698 15.3042 13.0925 14.8784 12.6666C14.4525 12.2408 13.8752 12.0011 13.273 12Z" fill="black"/>
<path d="M19 21C18.7348 21 18.4805 20.8946 18.293 20.707L15.02 17.435C14.8378 17.2464 14.737 16.9938 14.7393 16.7316C14.7416 16.4694 14.8468 16.2186 15.0322 16.0332C15.2176 15.8478 15.4684 15.7426 15.7306 15.7403C15.9928 15.7381 16.2454 15.8388 16.434 16.021L19.707 19.293C19.8468 19.4329 19.942 19.611 19.9806 19.805C20.0192 19.9989 19.9993 20.2 19.9237 20.3827C19.848 20.5654 19.7199 20.7215 19.5555 20.8314C19.391 20.9413 19.1977 21 19 21Z" fill="black"/>
</svg>
