<svg width="28" height="26" viewBox="0 0 28 26" fill="none" xmlns="http://www.w3.org/2000/svg">
<path d="M8.667 19C8.40181 18.9999 8.14749 18.8945 7.96 18.707L5.293 16.041C5.20002 15.9481 5.12626 15.8378 5.07594 15.7164C5.02562 15.595 4.99971 15.4649 4.99971 15.3335C4.99971 15.2021 5.02562 15.072 5.07594 14.9506C5.12626 14.8292 5.20002 14.7189 5.293 14.626L7.96 11.959C8.14764 11.7715 8.40208 11.6662 8.66735 11.6663C8.93262 11.6664 9.18699 11.7719 9.3745 11.9595C9.56201 12.1471 9.6673 12.4016 9.6672 12.6668C9.66711 12.9321 9.56164 13.1865 9.374 13.374L7.414 15.333L9.374 17.293C9.51381 17.4328 9.60902 17.611 9.64758 17.805C9.68615 17.9989 9.66635 18.1999 9.59068 18.3826C9.51501 18.5653 9.38687 18.7215 9.22246 18.8314C9.05805 18.9413 8.86475 19 8.667 19Z" fill="black"/>
<path d="M19.333 19C19.1353 19 18.942 18.9413 18.7775 18.8314C18.6131 18.7215 18.485 18.5653 18.4093 18.3826C18.3337 18.1999 18.3138 17.9989 18.3524 17.805C18.391 17.611 18.4862 17.4328 18.626 17.293L20.586 15.333L18.626 13.374C18.5331 13.2811 18.4594 13.1709 18.4091 13.0496C18.3588 12.9282 18.3328 12.7982 18.3328 12.6668C18.3328 12.5355 18.3586 12.4054 18.4088 12.2841C18.459 12.1627 18.5327 12.0524 18.6255 11.9595C18.7183 11.8666 18.8286 11.7929 18.9499 11.7426C19.0712 11.6923 19.2013 11.6663 19.3326 11.6663C19.464 11.6662 19.5941 11.6921 19.7154 11.7423C19.8368 11.7925 19.9471 11.8661 20.04 11.959L22.707 14.626C22.8 14.7189 22.8737 14.8292 22.9241 14.9506C22.9744 15.072 23.0003 15.2021 23.0003 15.3335C23.0003 15.4649 22.9744 15.595 22.9241 15.7164C22.8737 15.8378 22.8 15.9481 22.707 16.041L20.04 18.707C19.8525 18.8945 19.5982 18.9999 19.333 19Z" fill="black"/>
<path d="M12.666 19C12.4956 18.9999 12.3281 18.9563 12.1793 18.8733C12.0305 18.7902 11.9054 18.6706 11.8158 18.5256C11.7262 18.3806 11.6752 18.2152 11.6675 18.045C11.6599 17.8748 11.6958 17.7054 11.772 17.553L14.438 12.219C14.5573 11.9816 14.7661 11.8014 15.0183 11.7179C15.2706 11.6345 15.5456 11.6547 15.783 11.774C16.0204 11.8933 16.2006 12.1021 16.2841 12.3543C16.3675 12.6066 16.3473 12.8816 16.228 13.119L13.562 18.452C13.4782 18.6174 13.35 18.7563 13.1917 18.8531C13.0335 18.9499 12.8515 19.0007 12.666 19Z" fill="black"/>
<path d="M27 26H1C0.734784 26 0.48043 25.8946 0.292893 25.7071C0.105357 25.5196 0 25.2652 0 25V1C0 0.734784 0.105357 0.48043 0.292893 0.292893C0.48043 0.105357 0.734784 0 1 0H27C27.2652 0 27.5196 0.105357 27.7071 0.292893C27.8946 0.48043 28 0.734784 28 1V25C28 25.2652 27.8946 25.5196 27.7071 25.7071C27.5196 25.8946 27.2652 26 27 26ZM2 24H26V2H2V24Z" fill="black"/>
<path d="M27 8H1C0.734784 8 0.48043 7.89464 0.292893 7.70711C0.105357 7.51957 0 7.26522 0 7C0 6.73478 0.105357 6.48043 0.292893 6.29289C0.48043 6.10536 0.734784 6 1 6H27C27.2652 6 27.5196 6.10536 27.7071 6.29289C27.8946 6.48043 28 6.73478 28 7C28 7.26522 27.8946 7.51957 27.7071 7.70711C27.5196 7.89464 27.2652 8 27 8Z" fill="black"/>
<path d="M18 5.00001C17.933 4.99787 17.8661 4.99118 17.8 4.98001C17.7373 4.96913 17.6767 4.9489 17.62 4.92001C17.556 4.89797 17.4952 4.86772 17.439 4.83001L17.29 4.71001C17.1041 4.52045 16.9999 4.26553 16.9999 4.00001C16.9999 3.7345 17.1041 3.47958 17.29 3.29001C17.4318 3.15317 17.6103 3.06047 17.8038 3.02319C17.9973 2.98591 18.1975 3.00565 18.38 3.08001C18.4414 3.10013 18.4989 3.13057 18.55 3.17001C18.609 3.21001 18.66 3.25001 18.71 3.29001C18.8959 3.47958 19.0001 3.7345 19.0001 4.00001C19.0001 4.26553 18.8959 4.52045 18.71 4.71001C18.6126 4.79805 18.501 4.86905 18.38 4.92001C18.2598 4.97126 18.1307 4.99843 18 5.00001Z" fill="black"/>
<path d="M21 4.99999C20.933 4.99784 20.8661 4.99116 20.8 4.97999C20.7373 4.9691 20.6767 4.94887 20.62 4.91999C20.556 4.89794 20.4952 4.86769 20.439 4.82999C20.3871 4.79282 20.3374 4.75275 20.29 4.70999C20.1975 4.61606 20.1259 4.50359 20.08 4.37999C20.0273 4.26024 20 4.13083 20 3.99999C20 3.86915 20.0273 3.73973 20.08 3.61999C20.1307 3.49885 20.2017 3.38725 20.29 3.28999C20.4299 3.14896 20.6086 3.05278 20.8033 3.01371C20.9981 2.97464 21.2 2.99445 21.3835 3.07062C21.5669 3.14678 21.7235 3.27585 21.8333 3.44137C21.9431 3.60689 22.0012 3.80136 22 3.99999C21.9961 4.26471 21.8926 4.51824 21.71 4.70999C21.6623 4.75276 21.6122 4.79283 21.56 4.82999C21.5042 4.86767 21.4437 4.89793 21.38 4.91999C21.3233 4.94874 21.2626 4.96896 21.2 4.97999C21.1339 4.99155 21.0671 4.99823 21 4.99999Z" fill="black"/>
<path d="M24 5C23.8683 5.00133 23.7377 4.97638 23.6157 4.9266C23.4938 4.87682 23.383 4.80321 23.2899 4.71008C23.1968 4.61696 23.1232 4.50618 23.0734 4.38426C23.0236 4.26233 22.9987 4.13169 23 4C22.9965 3.86881 23.0239 3.73865 23.08 3.62C23.1307 3.49886 23.2017 3.38726 23.29 3.29C23.4834 3.11156 23.7369 3.01248 24 3.01248C24.2631 3.01248 24.5166 3.11156 24.71 3.29C24.7983 3.38726 24.8693 3.49886 24.92 3.62C24.9712 3.74022 24.9984 3.86932 25 4C25.0013 4.13169 24.9764 4.26233 24.9266 4.38426C24.8768 4.50618 24.8032 4.61696 24.7101 4.71008C24.617 4.80321 24.5062 4.87682 24.3843 4.9266C24.2623 4.97638 24.1317 5.00133 24 5Z" fill="black"/>
</svg>
