<svg width="28" height="25" viewBox="0 0 28 25" fill="none" xmlns="http://www.w3.org/2000/svg">
<path d="M27 21C26.766 20.9998 26.5393 20.9181 26.359 20.769L20.638 16H7C6.73478 16 6.48043 15.8946 6.29289 15.7071C6.10536 15.5196 6 15.2652 6 15V1C6 0.734784 6.10536 0.48043 6.29289 0.292893C6.48043 0.105357 6.73478 0 7 0H27C27.2652 0 27.5196 0.105357 27.7071 0.292893C27.8946 0.48043 28 0.734784 28 1V20C27.9999 20.19 27.9456 20.376 27.8436 20.5363C27.7416 20.6965 27.5961 20.8244 27.424 20.905C27.2915 20.9677 27.1466 21.0002 27 21ZM8 14H21C21.234 14.0001 21.4607 14.0818 21.641 14.231L26 17.865V2H8V14Z" fill="black"/>
<path d="M1 25C0.853361 25.0003 0.708511 24.9678 0.576 24.905C0.403939 24.8244 0.258385 24.6965 0.156377 24.5363C0.0543679 24.376 0.000125824 24.19 0 24V5C0 4.73478 0.105357 4.48043 0.292893 4.29289C0.48043 4.10536 0.734784 4 1 4H7C7.26522 4 7.51957 4.10536 7.70711 4.29289C7.89464 4.48043 8 4.73478 8 5C8 5.26522 7.89464 5.51957 7.70711 5.70711C7.51957 5.89464 7.26522 6 7 6H2V21.865L6.359 18.231C6.53929 18.0818 6.76597 18.0001 7 18H20V15C20 14.7348 20.1054 14.4804 20.2929 14.2929C20.4804 14.1054 20.7348 14 21 14C21.2652 14 21.5196 14.1054 21.7071 14.2929C21.8946 14.4804 22 14.7348 22 15V19C22 19.2652 21.8946 19.5196 21.7071 19.7071C21.5196 19.8946 21.2652 20 21 20H7.362L1.641 24.769C1.46067 24.9181 1.23402 24.9998 1 25Z" fill="black"/>
<path d="M12 9C12.5523 9 13 8.55228 13 8C13 7.44772 12.5523 7 12 7C11.4477 7 11 7.44772 11 8C11 8.55228 11.4477 9 12 9Z" fill="black"/>
<path d="M17 9C17.5523 9 18 8.55228 18 8C18 7.44772 17.5523 7 17 7C16.4477 7 16 7.44772 16 8C16 8.55228 16.4477 9 17 9Z" fill="black"/>
<path d="M22 9C22.5523 9 23 8.55228 23 8C23 7.44772 22.5523 7 22 7C21.4477 7 21 7.44772 21 8C21 8.55228 21.4477 9 22 9Z" fill="black"/>
</svg>
