<svg width="51" height="51" viewBox="0 0 51 51" fill="none" xmlns="http://www.w3.org/2000/svg">
<path d="M46.4077 5.11849C41.8743 0.57891 38.4683 1.25976 38.4683 1.25976L22.5863 17.1402L4.43524 35.2889L1.26129 50.261L16.2344 47.0864L50.2692 13.059C50.2692 13.059 50.9484 9.65638 46.4077 5.11849ZM15.3429 45.2854L10.2368 46.3843C9.74477 45.4614 9.15133 44.5435 8.06701 43.4547C6.98213 42.3698 6.05864 41.7747 5.13515 41.2838L6.23404 36.1766L7.71118 34.7056C7.71118 34.7056 10.4923 34.7599 13.6225 37.8963C16.7578 41.035 16.8178 43.8077 16.8178 43.8077L15.3429 45.2854Z" fill="black"/>
<path d="M11.2482 24.1975L13.3933 22.0529L3.65687 12.3159L12.3555 3.61725L14.3656 5.62731L11.6556 8.33727C11.0622 8.92846 11.0633 9.89006 11.6556 10.4812C12.2468 11.0747 13.2062 11.0747 13.7996 10.4812L16.5096 7.77129L20.2164 11.4759L17.5054 14.1881C16.913 14.7793 16.913 15.7409 17.5065 16.3321C17.8315 16.6577 18.2658 16.7866 18.6922 16.7541L24.236 11.2092L14.3073 1.2805C13.2314 0.204582 11.3923 0.289759 10.2099 1.4727L1.51233 10.1719C0.330502 11.3543 0.244765 13.1912 1.32124 14.2694L11.2482 24.1975Z" fill="black"/>
<path d="M50.2445 37.2177L40.322 27.2952L34.6438 32.9735C34.6796 33.3035 34.8035 33.6286 35.0573 33.8824C35.6485 34.4758 36.6073 34.4758 37.2002 33.8824L39.9113 31.1719L43.617 34.8787L40.9059 37.5893C40.3136 38.1805 40.3136 39.1421 40.9059 39.7327C41.4994 40.3267 42.4582 40.3267 43.0511 39.7327L45.761 37.0227L47.9084 39.1706C47.9072 39.1706 47.9072 39.1706 47.9072 39.1706L39.2103 47.8699L29.4794 38.139L27.3343 40.283L37.2579 50.206C38.335 51.2825 40.1724 51.1968 41.3554 50.0161L50.0529 41.3174C51.2375 40.1328 51.3216 38.2953 50.2445 37.2177Z" fill="black"/>
</svg>
