<svg width="51" height="40" viewBox="0 0 51 40" fill="none" xmlns="http://www.w3.org/2000/svg">
<path d="M47.3 0H3.5C2.57174 0 1.6815 0.368748 1.02513 1.02513C0.368748 1.6815 0 2.57174 0 3.5C0 4.42826 0.368748 5.3185 1.02513 5.97487C1.6815 6.63125 2.57174 7 3.5 7H47.3C48.2283 7 49.1185 6.63125 49.7749 5.97487C50.4312 5.3185 50.8 4.42826 50.8 3.5C50.8 2.57174 50.4312 1.6815 49.7749 1.02513C49.1185 0.368748 48.2283 0 47.3 0Z" fill="white"/>
<path d="M47.3 16.5H3.5C2.57174 16.5 1.6815 16.8688 1.02513 17.5251C0.368748 18.1815 0 19.0717 0 20C0 20.9283 0.368748 21.8185 1.02513 22.4749C1.6815 23.1312 2.57174 23.5 3.5 23.5H47.3C48.2283 23.5 49.1185 23.1312 49.7749 22.4749C50.4312 21.8185 50.8 20.9283 50.8 20C50.8 19.0717 50.4312 18.1815 49.7749 17.5251C49.1185 16.8688 48.2283 16.5 47.3 16.5Z" fill="white"/>
<path d="M50.8 36.5C50.8 35.5717 50.4312 34.6815 49.7749 34.0251C49.1185 33.3687 48.2283 33 47.3 33H3.5C2.57174 33 1.6815 33.3687 1.02513 34.0251C0.368748 34.6815 0 35.5717 0 36.5C0 37.4283 0.368748 38.3185 1.02513 38.9749C1.6815 39.6313 2.57174 40 3.5 40H47.3C48.2283 40 49.1185 39.6313 49.7749 38.9749C50.4312 38.3185 50.8 37.4283 50.8 36.5Z" fill="white"/>
</svg>
