<svg width="28" height="27" viewBox="0 0 28 27" fill="none" xmlns="http://www.w3.org/2000/svg">
<path d="M26 26.47H2C1.46957 26.47 0.960859 26.2593 0.585786 25.8842C0.210714 25.5091 0 25.0004 0 24.47V21.47C0 21.2048 0.105357 20.9504 0.292893 20.7629C0.48043 20.5754 0.734784 20.47 1 20.47H27C27.2652 20.47 27.5196 20.5754 27.7071 20.7629C27.8946 20.9504 28 21.2048 28 21.47V24.47C28 25.0004 27.7893 25.5091 27.4142 25.8842C27.0391 26.2593 26.5304 26.47 26 26.47ZM2 22.47V24.47H26V22.47H2Z" fill="black"/>
<path d="M25 22.47H3C2.73478 22.47 2.48043 22.3646 2.29289 22.1771C2.10536 21.9896 2 21.7352 2 21.47V4.47C2 4.20478 2.10536 3.95043 2.29289 3.76289C2.48043 3.57536 2.73478 3.47 3 3.47H25C25.2652 3.47 25.5196 3.57536 25.7071 3.76289C25.8946 3.95043 26 4.20478 26 4.47V21.47C26 21.7352 25.8946 21.9896 25.7071 22.1771C25.5196 22.3646 25.2652 22.47 25 22.47ZM4 20.47H24V5.47H4V20.47Z" fill="black"/>
<path d="M16 23.47H12C11.7348 23.47 11.4804 23.3646 11.2929 23.1771C11.1054 22.9896 11 22.7352 11 22.47C11 22.2048 11.1054 21.9504 11.2929 21.7629C11.4804 21.5754 11.7348 21.47 12 21.47H16C16.2652 21.47 16.5196 21.5754 16.7071 21.7629C16.8946 21.9504 17 22.2048 17 22.47C17 22.7352 16.8946 22.9896 16.7071 23.1771C16.5196 23.3646 16.2652 23.47 16 23.47Z" fill="black"/>
<path d="M14 17.47C13.7836 17.47 13.5731 17.3998 13.4 17.27L10.09 14.79L7.71 17.18C7.61676 17.2732 7.50607 17.3472 7.38425 17.3977C7.26243 17.4481 7.13186 17.4741 7 17.4741C6.86814 17.4741 6.73757 17.4481 6.61575 17.3977C6.49393 17.3472 6.38324 17.2732 6.29 17.18C6.19676 17.0868 6.1228 16.9761 6.07234 16.8543C6.02188 16.7324 5.99591 16.6019 5.99591 16.47C5.99591 16.3381 6.02188 16.2076 6.07234 16.0858C6.1228 15.9639 6.19676 15.8532 6.29 15.76L9.29 12.76C9.46074 12.5895 9.6874 12.4864 9.92816 12.4699C10.1689 12.4533 10.4075 12.5244 10.6 12.67L13.91 15.15L20.29 8.76C20.4783 8.5717 20.7337 8.46591 21 8.46591C21.2663 8.46591 21.5217 8.5717 21.71 8.76C21.8983 8.94831 22.0041 9.2037 22.0041 9.47C22.0041 9.7363 21.8983 9.9917 21.71 10.18L14.71 17.18C14.6166 17.2727 14.5057 17.346 14.3839 17.3958C14.2621 17.4455 14.1316 17.4708 14 17.47Z" fill="black"/>
<path d="M24 1.9C24.5247 1.9 24.95 1.47467 24.95 0.95C24.95 0.42533 24.5247 0 24 0C23.4753 0 23.05 0.42533 23.05 0.95C23.05 1.47467 23.4753 1.9 24 1.9Z" fill="black"/>
<path d="M21.05 2.17001C21.3096 2.17001 21.52 1.95958 21.52 1.70001C21.52 1.44044 21.3096 1.23001 21.05 1.23001C20.7904 1.23001 20.58 1.44044 20.58 1.70001C20.58 1.95958 20.7904 2.17001 21.05 2.17001Z" fill="black"/>
</svg>
