<svg width="25" height="25" viewBox="0 0 25 25" fill="none" xmlns="http://www.w3.org/2000/svg">
<path d="M9.81359 19.64C7.54177 19.6385 5.34073 18.8494 3.58549 17.407C1.83025 15.9647 0.629406 13.9584 0.187545 11.73C-0.254316 9.50151 0.0901465 7.1888 1.16225 5.18585C2.23434 3.1829 3.96775 1.61363 6.06713 0.745409C8.16651 -0.12281 10.502 -0.236266 12.6756 0.424372C14.8493 1.08501 16.7266 2.47887 17.9878 4.36847C19.249 6.25807 19.816 8.5265 19.5923 10.7873C19.3685 13.0481 18.3678 15.1613 16.7606 16.767C15.8491 17.68 14.7661 18.4038 13.5739 18.8969C12.3816 19.3899 11.1037 19.6425 9.81359 19.64ZM9.81359 1.999C8.00423 2.00026 6.25128 2.62882 4.85339 3.77761C3.45551 4.92639 2.49917 6.52432 2.14733 8.29914C1.79548 10.074 2.06989 11.9159 2.9238 13.5111C3.77772 15.1062 5.1583 16.356 6.83035 17.0474C8.50239 17.7389 10.3624 17.8292 12.0936 17.3029C13.8247 16.7767 15.3199 15.6666 16.3243 14.1616C17.3287 12.6566 17.7802 10.8499 17.602 9.04938C17.4237 7.24883 16.6266 5.56578 15.3466 4.287C14.6205 3.55999 13.7579 2.9836 12.8084 2.59096C11.8588 2.19831 10.8411 1.99714 9.81359 1.999Z" fill="black"/>
<path d="M23.0736 24.08C22.8084 24.08 22.5541 23.9746 22.3666 23.787L15.3466 16.767C15.1644 16.5784 15.0636 16.3258 15.0659 16.0636C15.0682 15.8014 15.1734 15.5506 15.3588 15.3652C15.5442 15.1798 15.795 15.0746 16.0572 15.0723C16.3194 15.0701 16.572 15.1708 16.7606 15.353L23.7806 22.373C23.9204 22.5129 24.0156 22.691 24.0542 22.885C24.0927 23.0789 24.0729 23.28 23.9973 23.4627C23.9216 23.6454 23.7935 23.8015 23.6291 23.9114C23.4646 24.0213 23.2713 24.08 23.0736 24.08Z" fill="black"/>
</svg>
