<svg width="51" height="51" viewBox="0 0 51 51" fill="none" xmlns="http://www.w3.org/2000/svg">
<path fill-rule="evenodd" clip-rule="evenodd" d="M47.9089 41.926L41.9249 47.9084C41.475 48.3574 40.8654 48.6095 40.2298 48.6095C39.5941 48.6095 38.9845 48.3574 38.5346 47.9084L22.3727 31.7493C22.262 31.6381 22.1303 31.5499 21.9853 31.4898C21.8403 31.4297 21.6848 31.3989 21.5278 31.3991C21.4188 31.3989 21.3103 31.414 21.2054 31.4439C18.8485 32.1073 16.3638 32.1758 13.974 31.6434C11.5841 31.1109 9.36355 29.994 7.51131 28.3927C5.65906 26.7914 4.23291 24.7558 3.36058 22.4681C2.48825 20.1804 2.19698 17.7121 2.51285 15.2842L9.05103 21.822C9.1994 21.9704 9.38427 22.0771 9.58702 22.1313C9.78977 22.1855 10.0032 22.1853 10.2059 22.1308L18.9433 19.79C19.1457 19.7357 19.3303 19.6291 19.4785 19.4809C19.6267 19.3327 19.7333 19.1482 19.7876 18.9457L22.1285 10.2083C22.1834 10.0058 22.1837 9.79234 22.1295 9.58964C22.0752 9.38693 21.9684 9.20218 21.8197 9.0541L15.2815 2.51576C17.7095 2.19991 20.178 2.49117 22.4659 3.36344C24.7537 4.23572 26.7895 5.66178 28.3908 7.51391C29.9922 9.36604 31.1092 11.5864 31.6417 13.9762C32.1742 16.3659 32.1057 18.8504 31.4422 21.2072C31.3848 21.4114 31.3829 21.6273 31.4367 21.8326C31.4905 22.0379 31.598 22.2251 31.7482 22.375L47.9089 38.5341C48.3583 38.9841 48.6107 39.5941 48.6107 40.23C48.6107 40.866 48.3583 41.4759 47.9089 41.926ZM33.9208 21.1675C34.6125 18.2547 34.5317 15.2118 33.6863 12.3398C32.8409 9.46785 31.2603 6.86635 29.1008 4.7927C26.9414 2.71904 24.2779 1.24511 21.3739 0.516705C18.4699 -0.211695 15.426 -0.169314 12.5434 0.639656C12.3425 0.695986 12.1598 0.803914 12.0135 0.952713C11.8672 1.10151 11.7624 1.286 11.7096 1.48784C11.6567 1.68968 11.6575 1.90185 11.7121 2.10325C11.7666 2.30466 11.8729 2.48829 12.0203 2.63589L19.6414 10.2559L17.6581 17.6595L10.2546 19.6427L2.63242 12.0227C2.48476 11.8752 2.30108 11.7689 2.09963 11.7145C1.89818 11.66 1.68597 11.6592 1.48411 11.7121C1.28225 11.765 1.09776 11.8699 0.948981 12.0162C0.800203 12.1626 0.69232 12.3453 0.636057 12.5462C-0.170258 15.4284 -0.210662 18.471 0.518836 21.3736C1.24833 24.2762 2.72249 26.9382 4.79569 29.0968C6.86888 31.2553 9.46938 32.8357 12.3403 33.6818C15.2112 34.5279 18.2532 34.6104 21.1657 33.9212L36.8431 49.5992C37.7417 50.4962 38.9595 51 40.2292 51C41.4989 51 42.7167 50.4962 43.6153 49.5992L49.601 43.6162C50.4969 42.717 51 41.4994 51 40.23C51 38.9607 50.4969 37.7431 49.601 36.8439L33.9208 21.1675Z" fill="black"/>
</svg>
